<?xml version="1.0" encoding="utf-8"?>
<!-- Generator: Adobe Illustrator 23.0.2, SVG Export Plug-In . SVG Version: 6.00 Build 0)  -->
<svg version="1.1" id="Слой_1" xmlns="http://www.w3.org/2000/svg" xmlns:xlink="http://www.w3.org/1999/xlink" x="0px" y="0px"
	 viewBox="0 0 2991.5 1283.6" style="enable-background:new 0 0 2991.5 1283.6;" xml:space="preserve">
<style type="text/css">
	.st0{fill:#FFFFFF;stroke:#000000;stroke-miterlimit:10;}
	.st1{opacity:0.57;fill:#D4D4D4;enable-background:new    ;}
	.st2{opacity:0.54;fill:#D4D4D4;enable-background:new    ;}
	.st3{fill:none;stroke:#D34B4B;stroke-width:4;stroke-miterlimit:10;}
	.st4{fill:#D34B4B;}
	.st5{opacity:0.5;fill:#C9D7F0;stroke:#D34B4B;stroke-width:0.4;stroke-miterlimit:10;enable-background:new    ;}
	.st6{font-family:'ArialMT';}
	.st7{font-size:1.5px;}
	.st8{font-size:4px;}
	.st9{fill:none;stroke:#000000;stroke-width:0.2;stroke-miterlimit:10;}
	.st10{fill:#C9D7F0;stroke:#D34B4B;stroke-width:0.4;stroke-miterlimit:10;}
	.st11{font-size:1.1px;}
	.st12{opacity:0.5;fill:#C9D7F0;stroke:#D34B4B;stroke-width:0.4;stroke-miterlimit:10;}
	.st13{opacity:0.5;fill:#C9D7F0;stroke:#767573;stroke-width:0.4;stroke-miterlimit:10;}
	.st14{fill:#565E63;}
	.st15{fill:#535B60;}
	.st16{fill:#CCFF99;stroke:#D34B4B;stroke-width:2;stroke-miterlimit:10;}
	.st17{font-size:12px;}
	.st18{fill:#C9D7F0;stroke:#D34B4B;stroke-width:2;stroke-miterlimit:10;}
	.st19{opacity:0.5;fill:#C9D7F0;stroke:#4E6E4C;stroke-width:2;stroke-miterlimit:10;enable-background:new    ;}
	.st20{opacity:0.5;enable-background:new    ;}
	.st21{fill:none;stroke:#D24A43;stroke-miterlimit:10;}
	.st22{font-size:6px;}
	.st23{font-size:9px;}
	.st24{opacity:0.5;fill:#CCFF99;stroke:#487855;stroke-width:2;stroke-miterlimit:10;enable-background:new    ;}
	.st25{opacity:0.39;fill:#3EB5F1;stroke:#000000;stroke-miterlimit:10;enable-background:new    ;}
	.st26{fill:none;stroke:#EDE95D;stroke-miterlimit:10;}
	.st27{fill:#EDE95D;}
	.st28{font-size:2px;}
	.st29{fill:#CDDE8E;}
	.st30{font-size:2.5px;}
	.st31{fill:#58AE69;}
	.st32{fill:#74AE65;}
	.st33{enable-background:new    ;}
	.st34{fill:#35383B;}
	.st35{fill:#D55266;}
</style>
<g id="Base">
	<rect y="0" class="st0" width="2991.5" height="1283.6"/>
</g>
<g id="Layer1">
	
		<image style="overflow:visible;enable-background:new    ;" width="3183" height="995" xlink:href="6F3F7F9A.png"  transform="matrix(0.7497 0 0 0.7497 330.7186 219.8297)">
	</image>
</g>
<g id="Bg">
	<path class="st1" d="M330.6,220.1v745.5h2386.5V220.1H330.6z"/>
	<path class="st1" d="M330.6,220.1v745.5h2386.5V220.1H330.6z"/>
</g>
<g id="Layer2">
	<g id="Слой_3">
		<g id="Слой_5">
		</g>
		<path class="st2" d="M1559,653h-12.4c-3.5,0-6.4-2.9-6.4-6.4v-61.4c0-3.5,2.9-6.4,6.4-6.4h12.4c3.5,0,6.4,2.9,6.4,6.4v61.4
			C1565.4,650.2,1562.6,653,1559,653z"/>
		<path class="st2" d="M1864.1,493.2h-262.8c-3.5,0-6.4-2.9-6.4-6.4v-18.2c0-3.5,2.9-6.4,6.4-6.4h262.8c3.5,0,6.4,2.9,6.4,6.4v18.2
			C1870.5,490.3,1867.6,493.2,1864.1,493.2z"/>
		<path class="st2" d="M2090.1,460.4h-82.7c-3.5,0-6.4-2.9-6.4-6.4v-18.2c0-3.5,2.9-6.4,6.4-6.4h82.7c3.5,0,6.4,2.9,6.4,6.4V454
			C2096.5,457.5,2093.7,460.4,2090.1,460.4z"/>
		<path class="st2" d="M993.1,619h-10.5c-3.5,0-6.4-2.9-6.4-6.4v-10.5c0-3.5,2.9-6.4,6.4-6.4h10.5c3.5,0,6.4,2.9,6.4,6.4v10.5
			C999.5,616.2,996.7,619,993.1,619z"/>
		<path class="st2" d="M968.7,604.1h-10.5c-3.5,0-6.4-2.9-6.4-6.4v-10.5c0-3.5,2.9-6.4,6.4-6.4h10.5c3.5,0,6.4,2.9,6.4,6.4v10.5
			C975.1,601.2,972.2,604.1,968.7,604.1z"/>
		<path class="st2" d="M940.2,620h-10.5c-3.5,0-6.4-2.9-6.4-6.4v-10.5c0-3.5,2.9-6.4,6.4-6.4h10.5c3.5,0,6.4,2.9,6.4,6.4v10.5
			C946.6,617.2,943.8,620,940.2,620z"/>
		<path class="st2" d="M1090.8,615.5h-10.5c-3.5,0-6.4-2.9-6.4-6.4v-10.5c0-3.5,2.9-6.4,6.4-6.4h10.5c3.5,0,6.4,2.9,6.4,6.4v10.5
			C1097.2,612.7,1094.3,615.5,1090.8,615.5z"/>
		<path class="st2" d="M1312.1,679.5h-10.5c-3.5,0-6.4-2.9-6.4-6.4v-10.5c0-3.5,2.9-6.4,6.4-6.4h10.5c3.5,0,6.4,2.9,6.4,6.4v10.5
			C1318.5,676.7,1315.6,679.5,1312.1,679.5z"/>
		<path class="st2" d="M1363.2,679.5h-10.5c-3.5,0-6.4-2.9-6.4-6.4v-10.5c0-3.5,2.9-6.4,6.4-6.4h10.5c3.5,0,6.4,2.9,6.4,6.4v10.5
			C1369.6,676.7,1366.7,679.5,1363.2,679.5z"/>
		<path class="st2" d="M1800.9,279.6h-10.5c-3.5,0-6.4-2.9-6.4-6.4v-10.5c0-3.5,2.9-6.4,6.4-6.4h10.5c3.5,0,6.4,2.9,6.4,6.4v10.5
			C1807.3,276.8,1804.4,279.6,1800.9,279.6z"/>
		<path class="st2" d="M1871.6,340.9h-10.5c-3.5,0-6.4-2.9-6.4-6.4V324c0-3.5,2.9-6.4,6.4-6.4h10.5c3.5,0,6.4,2.9,6.4,6.4v10.5
			C1878,338,1875.1,340.9,1871.6,340.9z"/>
		<path class="st2" d="M1942.3,344.7h-10.5c-3.5,0-6.4-2.9-6.4-6.4v-10.5c0-3.5,2.9-6.4,6.4-6.4h10.5c3.5,0,6.4,2.9,6.4,6.4v10.5
			C1948.7,341.9,1945.9,344.7,1942.3,344.7z"/>
		<path class="st2" d="M2152.7,387.1h-10.5c-3.5,0-6.4-2.9-6.4-6.4v-10.5c0-3.5,2.9-6.4,6.4-6.4h10.5c3.5,0,6.4,2.9,6.4,6.4v10.5
			C2159.1,384.3,2156.3,387.1,2152.7,387.1z"/>
		<path class="st2" d="M2256.4,374H2221c-3.5,0-6.4-2.9-6.4-6.4v-10.5c0-3.5,2.9-6.4,6.4-6.4h35.3c3.5,0,6.4,2.9,6.4,6.4v10.5
			C2262.7,371.2,2259.9,374,2256.4,374z"/>
		<path class="st2" d="M2277.6,398.8h-35.3c-3.5,0-6.4-2.9-6.4-6.4v-10.5c0-3.5,2.9-6.4,6.4-6.4h35.3c3.5,0,6.4,2.9,6.4,6.4v10.5
			C2284,395.9,2281.2,398.8,2277.6,398.8z"/>
		<path class="st2" d="M2366.7,438.1h-59.5c-3.5,0-6.4-2.9-6.4-6.4v-10.5c0-3.5,2.9-6.4,6.4-6.4h59.5c3.5,0,6.4,2.9,6.4,6.4v10.5
			C2373.1,435.3,2370.2,438.1,2366.7,438.1z"/>
		<path class="st2" d="M2366.7,461.4h-59.5c-3.5,0-6.4-2.9-6.4-6.4v-10.5c0-3.5,2.9-6.4,6.4-6.4h59.5c3.5,0,6.4,2.9,6.4,6.4V455
			C2373.1,458.6,2370.2,461.4,2366.7,461.4z"/>
		<path class="st2" d="M2366.7,484.7h-59.5c-3.5,0-6.4-2.9-6.4-6.4v-10.5c0-3.5,2.9-6.4,6.4-6.4h59.5c3.5,0,6.4,2.9,6.4,6.4v10.5
			C2373.1,481.9,2370.2,484.7,2366.7,484.7z"/>
		<path class="st2" d="M1805.8,304.2h-10.5c-3.5,0-6.4-2.9-6.4-6.4v-10.5c0-3.5,2.9-6.4,6.4-6.4h10.5c3.5,0,6.4,2.9,6.4,6.4v10.5
			C1812.2,301.3,1809.3,304.2,1805.8,304.2z"/>
		<path class="st2" d="M1772,304.2h-10.5c-3.5,0-6.4-2.9-6.4-6.4v-10.5c0-3.5,2.9-6.4,6.4-6.4h10.5c3.5,0,6.4,2.9,6.4,6.4v10.5
			C1778.4,301.3,1775.5,304.2,1772,304.2z"/>
		<path class="st2" d="M1805.8,329.2h-38.7c-3.5,0-6.4-2.9-6.4-6.4v-10.5c0-3.5,2.9-6.4,6.4-6.4h38.7c3.5,0,6.4,2.9,6.4,6.4v10.5
			C1812.2,326.4,1809.3,329.2,1805.8,329.2z"/>
		<path class="st2" d="M1065.5,615.5H1055c-3.5,0-6.4-2.9-6.4-6.4v-10.5c0-3.5,2.9-6.4,6.4-6.4h10.5c3.5,0,6.4,2.9,6.4,6.4v10.5
			C1071.9,612.7,1069,615.5,1065.5,615.5z"/>
		<path class="st2" d="M702.9,591.3h-10.5c-3.5,0-6.4-2.9-6.4-6.4v-10.5c0-3.5,2.9-6.4,6.4-6.4h10.5c3.5,0,6.4,2.9,6.4,6.4v10.5
			C709.3,588.4,706.4,591.3,702.9,591.3z"/>
		<path class="st2" d="M503.2,598.8h-25.4c-3.5,0-6.4-2.9-6.4-6.4v-10.5c0-3.5,2.9-6.4,6.4-6.4h25.4c3.5,0,6.4,2.9,6.4,6.4v10.5
			C509.6,595.9,506.8,598.8,503.2,598.8z"/>
		<path class="st2" d="M503.2,630.2h-25.4c-3.5,0-6.4-2.9-6.4-6.4v-10.5c0-3.5,2.9-6.4,6.4-6.4h25.4c3.5,0,6.4,2.9,6.4,6.4v10.5
			C509.6,627.4,506.8,630.2,503.2,630.2z"/>
		<path class="st2" d="M446.5,715.1v25.4c0,3.5-2.9,6.4-6.4,6.4h-10.5c-3.5,0-6.4-2.9-6.4-6.4v-25.4c0-3.5,2.9-6.4,6.4-6.4h10.5
			C443.6,708.7,446.5,711.5,446.5,715.1z"/>
		<path class="st2" d="M473.2,716.6V742c0,3.5-2.9,6.4-6.4,6.4h-10.5c-3.5,0-6.4-2.9-6.4-6.4v-25.4c0-3.5,2.9-6.4,6.4-6.4h10.5
			C470.3,710.2,473.2,713.1,473.2,716.6z"/>
	</g>
	<g id="AOPO">
		<g>
			<g>
				<polyline class="st3" points="1749.2,331.6 1765.7,331.6 1765.7,311.2 1807.1,311.2 1807.1,330.1 1835.5,330.1 				"/>
				<g>
					<polygon class="st4" points="1753.7,335.5 1749.9,331.6 1753.7,327.7 1750.4,327.7 1746.6,331.6 1750.4,335.5 					"/>
				</g>
				<g>
					<polygon class="st4" points="1830.9,333.9 1834.8,330.1 1830.9,326.2 1834.2,326.2 1838.1,330.1 1834.2,333.9 					"/>
				</g>
			</g>
		</g>
		<polyline class="st3" points="1655.7,469.7 1664.5,469.7 1664.5,536.3 		"/>
		<polyline class="st3" points="1621.2,467.1 1606.7,467.1 1606.7,536.3 		"/>
		<polyline class="st3" points="1704.3,480.5 1697.5,480.5 1697.5,536.3 		"/>
		<polyline class="st3" points="1858.1,480.5 1851.4,480.5 1851.4,536.3 		"/>
		<g>
			<g>
				<line class="st3" x1="700.6" y1="579.6" x2="750.2" y2="579.6"/>
				<g>
					<polygon class="st4" points="742.2,586.4 749,579.6 742.2,572.8 748,572.8 754.7,579.6 748,586.4 					"/>
				</g>
			</g>
		</g>
		<polyline class="st3" points="1553.3,599 1553.3,591.2 1475.6,591.2 		"/>
		<polyline class="st3" points="1553.3,638.7 1553.3,645.2 1477.2,645.2 		"/>
		<g>
			<g>
				<polyline class="st3" points="981.3,608.5 989.4,608.5 989.4,552 1017.4,552 				"/>
				<g>
					<polygon class="st4" points="1009.4,558.8 1016.2,552 1009.4,545.2 1015.2,545.2 1021.9,552 1015.2,558.8 					"/>
				</g>
			</g>
		</g>
		<g>
			<g>
				<polyline class="st3" points="1061.8,603.9 1069.9,603.9 1069.9,631 1130.4,631 				"/>
				<g>
					<polygon class="st4" points="1122.4,637.7 1129.2,631 1122.4,624.2 1128.2,624.2 1135,631 1128.2,637.7 					"/>
				</g>
			</g>
		</g>
		<g>
			<g>
				<line class="st3" x1="1076.5" y1="603.9" x2="1130.4" y2="603.9"/>
				<g>
					<polygon class="st4" points="1122.4,610.7 1129.2,603.9 1122.4,597.1 1128.2,597.1 1135,603.9 1128.2,610.7 					"/>
				</g>
			</g>
		</g>
		<g>
			<g>
				<line class="st3" x1="500.3" y1="587.1" x2="464.6" y2="587.1"/>
				<g>
					<polygon class="st4" points="472.6,580.3 465.8,587.1 472.6,593.9 466.8,593.9 460.1,587.1 466.8,580.3 					"/>
				</g>
			</g>
		</g>
		<g>
			<g>
				<polyline class="st3" points="2033,444.9 2024.8,444.9 2024.8,507.9 				"/>
				<g>
					<polygon class="st4" points="2018,500 2024.8,506.8 2031.6,500 2031.6,505.7 2024.8,512.5 2018,505.7 					"/>
				</g>
			</g>
		</g>
		<g>
			<g>
				<polyline class="st3" points="2081,444.9 2073.3,444.9 2073.3,415 2029.3,415 				"/>
				<g>
					<polygon class="st4" points="2037.3,408.2 2030.5,415 2037.3,421.7 2031.6,421.7 2024.8,415 2031.6,408.2 					"/>
				</g>
			</g>
		</g>
		<g>
			<g>
				<polyline class="st3" points="2045.9,444.9 2039.7,444.9 2039.7,424.8 1996.2,424.8 				"/>
				<g>
					<polygon class="st4" points="2004.2,418 1997.4,424.8 2004.2,431.6 1998.4,431.6 1991.6,424.8 1998.4,418 					"/>
				</g>
			</g>
		</g>
		<polyline class="st3" points="2146.1,373.7 2140.6,367.7 2077.9,367.7 		"/>
		<polyline class="st3" points="2146.1,377 2139.9,383.2 2077.9,383.2 		"/>
		<g>
			<g>
				<polyline class="st3" points="1939.6,328.5 1944.5,324.9 2020.2,324.9 				"/>
				<g>
					<polygon class="st4" points="2012.2,331.7 2019,324.9 2012.2,318.1 2018,318.1 2024.8,324.9 2018,331.7 					"/>
				</g>
			</g>
		</g>
		<g>
			<g>
				<polyline class="st3" points="1939.6,334.7 1944.5,338.3 2020.2,338.3 				"/>
				<g>
					<polygon class="st4" points="2012.2,345.1 2019,338.3 2012.2,331.5 2018,331.5 2024.8,338.3 2018,345.1 					"/>
				</g>
			</g>
		</g>
		<g>
			<g>
				<polyline class="st3" points="1868.3,327.7 1872.3,323.9 1905.5,323.9 				"/>
				<g>
					<polygon class="st4" points="1878.8,327 1869.2,326.8 1869.4,317.3 1865.2,321.3 1865,330.8 1874.6,331 					"/>
				</g>
			</g>
		</g>
		<g>
			<g>
				<line class="st3" x1="1306.8" y1="683.2" x2="1306.8" y2="652.6"/>
				<g>
					<polygon class="st4" points="1313.6,675.2 1306.8,682 1300.1,675.2 1300.1,681 1306.8,687.7 1313.6,681 					"/>
				</g>
				<g>
					<polygon class="st4" points="1313.6,660.5 1306.8,653.8 1300.1,660.5 1300.1,654.8 1306.8,648 1313.6,654.8 					"/>
				</g>
			</g>
		</g>
		<g>
			<g>
				<line class="st3" x1="1357.9" y1="683.2" x2="1357.9" y2="652.6"/>
				<g>
					<polygon class="st4" points="1364.7,675.2 1357.9,682 1351.2,675.2 1351.2,681 1357.9,687.7 1364.7,681 					"/>
				</g>
				<g>
					<polygon class="st4" points="1364.7,660.5 1357.9,653.8 1351.2,660.5 1351.2,654.8 1357.9,648 1364.7,654.8 					"/>
				</g>
			</g>
		</g>
		<g>
			<g>
				<line class="st3" x1="500.3" y1="618.6" x2="464.6" y2="618.6"/>
				<g>
					<polygon class="st4" points="472.6,611.8 465.8,618.6 472.6,625.4 466.8,625.4 460.1,618.6 466.8,611.8 					"/>
				</g>
			</g>
		</g>
		<g>
			<g>
				<polyline class="st3" points="425.8,656.4 425.8,705.7 433.9,705.7 433.9,729.3 440.9,729.3 440.9,658.8 				"/>
				<g>
					<polygon class="st4" points="419,664.4 425.8,657.6 432.6,664.4 432.6,658.7 425.8,651.9 419,658.7 					"/>
				</g>
				<g>
					<polygon class="st4" points="447.7,666.7 440.9,659.9 434.1,666.7 434.1,661 440.9,654.2 447.7,661 					"/>
				</g>
			</g>
		</g>
		<g>
			<g>
				<polyline class="st3" points="454.1,658.4 454.1,727.7 460.1,727.7 460.1,716.5 466.8,716.5 466.8,704.9 526.1,704.9 				"/>
				<g>
					<polygon class="st4" points="447.3,666.3 454.1,659.6 460.8,666.3 460.8,660.6 454.1,653.8 447.3,660.6 					"/>
				</g>
				<g>
					<polygon class="st4" points="518.2,711.7 525,704.9 518.2,698.1 523.9,698.1 530.7,704.9 523.9,711.7 					"/>
				</g>
			</g>
		</g>
		<g>
			<g>
				<polyline class="st3" points="901.2,567.5 962.8,566.5 962.8,591.2 				"/>
				<g>
					<polygon class="st4" points="956.1,583.2 962.8,590 969.6,583.2 969.6,589 962.8,595.7 956.1,589 					"/>
				</g>
			</g>
		</g>
		<g>
			<g>
				<line class="st3" x1="938.1" y1="607.4" x2="882.3" y2="607.4"/>
				<g>
					<polygon class="st4" points="930.2,600.6 937,607.4 930.2,614.2 935.9,614.2 942.7,607.4 935.9,600.6 					"/>
				</g>
			</g>
		</g>
		<g>
			<g>
				<line class="st3" x1="2308.3" y1="448.3" x2="2257.9" y2="448.3"/>
				<g>
					<polygon class="st4" points="2300.4,441.5 2307.1,448.3 2300.4,455 2306.1,455 2312.9,448.3 2306.1,441.5 					"/>
				</g>
			</g>
		</g>
		<g>
			<g>
				<line class="st3" x1="2290" y1="466.1" x2="2312.9" y2="466.1"/>
				<g>
					<polygon class="st4" points="2298,472.8 2291.2,466.1 2298,459.3 2292.2,459.3 2285.4,466.1 2292.2,472.8 					"/>
				</g>
			</g>
		</g>
		<g>
			<g>
				<line class="st3" x1="2309.9" y1="407.5" x2="2309.9" y2="434.8"/>
				<g>
					<polygon class="st4" points="2303.2,415.5 2309.9,408.7 2316.7,415.5 2316.7,409.7 2309.9,403 2303.2,409.7 					"/>
				</g>
			</g>
		</g>
		<g>
			<g>
				<line class="st3" x1="1850.1" y1="271.2" x2="1792.2" y2="271.2"/>
				<g>
					<polygon class="st4" points="1842.2,264.4 1849,271.2 1842.2,277.9 1847.9,277.9 1854.7,271.2 1847.9,264.4 					"/>
				</g>
				<g>
					<polygon class="st4" points="1800.2,264.4 1793.4,271.2 1800.2,277.9 1794.4,277.9 1787.6,271.2 1794.4,264.4 					"/>
				</g>
			</g>
		</g>
		<g>
			<g>
				<line class="st3" x1="1800.5" y1="299.9" x2="1800.5" y2="285.2"/>
				<g>
					<polygon class="st4" points="1807.3,291.9 1800.5,298.7 1793.7,291.9 1793.7,297.7 1800.5,304.5 1807.3,297.7 					"/>
				</g>
				<g>
					<polygon class="st4" points="1807.3,293.2 1800.5,286.4 1793.7,293.2 1793.7,287.4 1800.5,280.6 1807.3,287.4 					"/>
				</g>
			</g>
		</g>
		<g>
			<g>
				<line class="st3" x1="1766.7" y1="299.9" x2="1766.7" y2="285.2"/>
				<g>
					<polygon class="st4" points="1773.5,291.9 1766.7,298.7 1759.9,291.9 1759.9,297.7 1766.7,304.5 1773.5,297.7 					"/>
				</g>
				<g>
					<polygon class="st4" points="1773.5,293.2 1766.7,286.4 1759.9,293.2 1759.9,287.4 1766.7,280.6 1773.5,287.4 					"/>
				</g>
			</g>
		</g>
		<g>
			<g>
				<line class="st3" x1="2253.4" y1="369.5" x2="2205.4" y2="369.5"/>
				<g>
					<polygon class="st4" points="2245.4,362.8 2252.2,369.5 2245.4,376.3 2251.2,376.3 2257.9,369.5 2251.2,362.8 					"/>
				</g>
			</g>
		</g>
		<g>
			<g>
				<line class="st3" x1="2257.9" y1="342.5" x2="2257.9" y2="365"/>
				<g>
					<polygon class="st4" points="2251.2,357 2257.9,363.8 2264.7,357 2264.7,362.8 2257.9,369.5 2251.2,362.8 					"/>
				</g>
			</g>
		</g>
		<g>
			<g>
				<line class="st3" x1="2266.7" y1="381.7" x2="2221.2" y2="381.7"/>
				<g>
					<polygon class="st4" points="2258.7,374.9 2265.5,381.7 2258.7,388.5 2264.4,388.5 2271.2,381.7 2264.4,374.9 					"/>
				</g>
			</g>
		</g>
		<g>
			<g>
				<line class="st3" x1="2271.2" y1="342.2" x2="2271.2" y2="377.1"/>
				<g>
					<polygon class="st4" points="2264.4,369.1 2271.2,375.9 2278,369.1 2278,374.9 2271.2,381.7 2264.4,374.9 					"/>
				</g>
			</g>
		</g>
		<circle class="st5" cx="2321.8" cy="475.4" r="2.4"/>
		<text transform="matrix(1 0 0 1 2320.2361 475.8102)" class="st6 st7">ОН-1</text>
		<text transform="matrix(1 0 0 1 2319.6777 470.13)" class="st6 st7">Сигнал</text>
		<text transform="matrix(1 0 0 1 2319.6775 481.6681)" class="st6 st7">Отключение</text>
		<circle class="st5" cx="2326.6" cy="475.4" r="2.4"/>
		<text transform="matrix(1 0 0 1 2324.4604 475.8102)" class="st6 st7">ОН-2-1</text>
		<circle class="st5" cx="2331.5" cy="475.4" r="2.4"/>
		<text transform="matrix(1 0 0 1 2329.2991 475.8102)" class="st6 st7">ОН-2-2</text>
		<circle class="st5" cx="2336.3" cy="475.4" r="2.4"/>
		<text transform="matrix(1 0 0 1 2334.1379 475.8102)" class="st6 st7">ОН-3-1</text>
		<circle class="st5" cx="2341.2" cy="475.4" r="2.4"/>
		<text transform="matrix(1 0 0 1 2338.9766 475.8102)" class="st6 st7">ОН-3-1</text>
		<circle class="st5" cx="2346" cy="475.4" r="2.4"/>
		<text transform="matrix(1 0 0 1 2344.4297 475.8102)" class="st6 st7">ОН-4</text>
		<text transform="matrix(1 0 0 1 2316.0647 466.0648)" class="st6 st8">АОПО АТ-3</text>
		<polyline class="st9" points="2316.1,466.6 2316.1,481.2 2319.7,481.2 		"/>
		<line class="st9" x1="2316.1" y1="469.6" x2="2319.7" y2="469.6"/>
		<polyline class="st9" points="2316.1,475.4 2318.1,475.4 2318.8,474.1 		"/>
		<text transform="matrix(1 0 0 1 2319.6777 451.2913)" class="st6 st7">Сигнал</text>
		<text transform="matrix(1 0 0 1 2319.6775 458.8294)" class="st6 st7">Отключение</text>
		<text transform="matrix(1 0 0 1 2316.0647 443.226)" class="st6 st8">АОПО ВЛ 330 кВ Киришская —</text>
		<text transform="matrix(1 0 0 1 2316.0647 446.226)" class="st6 st8">Тихвин-Литейный</text>
		<polyline class="st9" points="2316.1,446.8 2316.1,458.3 2318.2,458.3 2318.8,457.2 		"/>
		<line class="st9" x1="2316.1" y1="450.8" x2="2319.7" y2="450.8"/>
		<circle class="st5" cx="2321.1" cy="428.6" r="2.4"/>
		<text transform="matrix(1 0 0 1 2319.5286 428.9809)" class="st6 st7">ОН-1</text>
		<text transform="matrix(1 0 0 1 2318.9702 423.3006)" class="st6 st7">Сигнал</text>
		<text transform="matrix(1 0 0 1 2318.97 434.8388)" class="st6 st7">Отключение</text>
		<circle class="st5" cx="2325.9" cy="428.6" r="2.4"/>
		<text transform="matrix(1 0 0 1 2323.7529 428.9809)" class="st6 st7">ОН-2-1</text>
		<circle class="st5" cx="2330.8" cy="428.6" r="2.4"/>
		<text transform="matrix(1 0 0 1 2328.5916 428.9809)" class="st6 st7">ОН-2-2</text>
		<circle class="st5" cx="2335.6" cy="428.6" r="2.4"/>
		<text transform="matrix(1 0 0 1 2333.4304 428.9809)" class="st6 st7">ОН-3-1</text>
		<circle class="st5" cx="2340.5" cy="428.6" r="2.4"/>
		<text transform="matrix(1 0 0 1 2338.269 428.9809)" class="st6 st7">ОН-3-1</text>
		<circle class="st5" cx="2345.3" cy="428.6" r="2.4"/>
		<text transform="matrix(1 0 0 1 2343.7219 428.9809)" class="st6 st7">ОН-4</text>
		<text transform="matrix(1 0 0 1 2315.3572 419.2354)" class="st6 st8">АОПО АТ-5</text>
		<polyline class="st9" points="2315.4,419.8 2315.4,434.3 2319,434.3 		"/>
		<line class="st9" x1="2315.4" y1="422.8" x2="2319" y2="422.8"/>
		<polyline class="st9" points="2315.4,428.6 2317.4,428.6 2318.1,427.2 		"/>
		<circle class="st5" cx="2321.8" cy="455" r="2.4"/>
		<text transform="matrix(1 0 0 1 2320.2361 455.3503)" class="st6 st7">ОН-1</text>
		<circle class="st5" cx="2326.6" cy="455" r="2.4"/>
		<text transform="matrix(1 0 0 1 2324.4604 455.3503)" class="st6 st7">ОН-2-1</text>
		<circle class="st5" cx="2331.5" cy="455" r="2.4"/>
		<text transform="matrix(1 0 0 1 2329.2991 455.3503)" class="st6 st7">ОН-2-2</text>
		<circle class="st5" cx="2336.3" cy="455" r="2.4"/>
		<text transform="matrix(1 0 0 1 2334.1379 455.3503)" class="st6 st7">ОН-3-1</text>
		<circle class="st5" cx="2341.2" cy="455" r="2.4"/>
		<text transform="matrix(1 0 0 1 2338.9766 455.3503)" class="st6 st7">ОН-3-1</text>
		<circle class="st5" cx="2346" cy="455" r="2.4"/>
		<text transform="matrix(1 0 0 1 2344.4297 455.3503)" class="st6 st7">ОН-4</text>
		<polyline class="st9" points="2316.1,455 2318.1,455 2318.8,453.6 		"/>
		<text transform="matrix(1 0 0 1 1724.1937 466.5326)" class="st6 st8">АРО ПС Восточная</text>
		<text transform="matrix(1 0 0 1 1728.7744 479.6622)" class="st6 st7">Сигнал</text>
		<polyline class="st9" points="1725.2,475.1 1725.2,487.2 1728.8,487.2 		"/>
		<line class="st9" x1="1725.2" y1="479.2" x2="1728.8" y2="479.2"/>
		<line class="st9" x1="1725.2" y1="486.6" x2="1728.8" y2="486.6"/>
		<line class="st9" x1="1725.2" y1="486" x2="1728.8" y2="486"/>
		<circle class="st10" cx="1731.2" cy="486.7" r="2.4"/>
		<text transform="matrix(1 0 0 1 1729.587 485.9999)" class="st6 st11">САОН</text>
		<text transform="matrix(1 0 0 1 1730.2827 488.2739)" class="st6 st11">600</text>
		<text transform="matrix(1 0 0 1 1729.176 487.1998)" class="st6 st7">3+вэс</text>
		<circle class="st12" cx="1736" cy="486.7" r="2.4"/>
		<text transform="matrix(1 0 0 1 1734.3871 485.9999)" class="st6 st11">САОН</text>
		<text transform="matrix(1 0 0 1 1735.6946 488.2739)" class="st6 st11">0</text>
		<text transform="matrix(1 0 0 1 1733.9292 487.2003)" class="st6 st7">Зд-Ич</text>
		<circle class="st12" cx="1740.8" cy="486.6" r="2.4"/>
		<text transform="matrix(1 0 0 1 1739.1871 485.8776)" class="st6 st11">САОН</text>
		<text transform="matrix(1 0 0 1 1740.4946 488.1516)" class="st6 st11">0</text>
		<text transform="matrix(1 0 0 1 1739.012 487.0779)" class="st6 st7">Парн</text>
		<circle class="st13" cx="1745.6" cy="486.6" r="2.4"/>
		<text transform="matrix(1 0 0 1 1743.9872 485.8776)" class="st14 st6 st11">САОН</text>
		<text transform="matrix(1 0 0 1 1745.2947 488.1516)" class="st14 st6 st11">0</text>
		<text transform="matrix(1 0 0 1 1743.812 487.0779)" class="st15 st6 st7">Парн</text>
	</g>
	<text transform="matrix(1 0 0 1 1809.226 267.9998)" class="st6 st8">АОПО ВЛ 330 кВ Сясь - Петрозаводск</text>
</g>
<g id="Layer4">
	<circle class="st16" cx="1491.4" cy="320.5" r="14.2"/>
	<text transform="matrix(1 0 0 1 1480.0002 323.8712)" class="st6 st17">ОГ-3</text>
	<circle class="st16" cx="1392.3" cy="376.3" r="14.2"/>
	<text transform="matrix(1 0 0 1 1380.9034 379.6131)" class="st6 st17">ОГ-4</text>
	<circle class="st16" cx="1327.2" cy="327.5" r="14.2"/>
	<text transform="matrix(1 0 0 1 1315.8711 330.839)" class="st6 st17">ОГ-2</text>
	<circle class="st16" cx="1111.4" cy="341.7" r="14.2"/>
	<text transform="matrix(1 0 0 1 1100.0001 345.0325)" class="st6 st17">ОГ-1</text>
	<circle class="st18" cx="1521.7" cy="320.5" r="14.2"/>
	<text transform="matrix(1 0 0 1 1508.3228 323.8712)" class="st6 st17">ОН-1</text>
	<circle class="st18" cx="1532.1" cy="365.4" r="14.2"/>
	<text transform="matrix(1 0 0 1 1518.7743 368.7747)" class="st6 st17">ОН-3</text>
	<circle class="st18" cx="616" cy="486.5" r="14.2"/>
	<text transform="matrix(1 0 0 1 607.6453 489.8067)" class="st6 st17">ОН</text>
	<circle class="st18" cx="560.8" cy="437.5" r="14.2"/>
	<text transform="matrix(1 0 0 1 552.4195 440.8493)" class="st6 st17">ОН</text>
	<circle class="st19" cx="1292.6" cy="479" r="14.2"/>
	<text transform="matrix(1 0 0 1 1284.2905 482.3233)" class="st20 st6 st17">ОН</text>
	<circle class="st19" cx="1195.6" cy="629.7" r="14.2"/>
	<text transform="matrix(1 0 0 1 1187.2582 633.0649)" class="st20 st6 st17">ОН</text>
	<circle class="st19" cx="985.3" cy="493.2" r="14.2"/>
	<text transform="matrix(1 0 0 1 976.9679 496.5164)" class="st20 st6 st17">ОН</text>
	<text transform="matrix(1 0 0 1 1863.0969 90.5808)" class="st6 st17">ВЛ 330 кВ Сясь – Петрозаводск</text>
	<text transform="matrix(1 0 0 1 1863.0969 104.9808)" class="st6 st17">АТ-1 ПС 330 кВ Петрозаводск</text>
	<text transform="matrix(1 0 0 1 1863.0969 119.3808)" class="st6 st17">АТ-2 ПС 330 кВ Петрозаводск</text>
	<text transform="matrix(1 0 0 1 1863.0969 133.7808)" class="st6 st17">ВЛ 220 кВ Петрозаводск – Древлянка</text>
	<text transform="matrix(1 0 0 1 1863.0969 148.1808)" class="st6 st17">ВЛ 220 кВ Петрозаводск – Петрозаводсмаш</text>
	<polyline class="st21" points="2126,151.7 1812.2,151.7 1787.6,260.1 	"/>
	<circle class="st16" cx="740.5" cy="627.6" r="14.2"/>
	<text transform="matrix(1 0 0 1 732.2776 625.968)" class="st6 st17">ОГ</text>
	<text transform="matrix(1 0 0 1 727.2776 631.968)" class="st6 st22">Ю-З ТЭЦ</text>
	<circle class="st16" cx="891.8" cy="451.1" r="14.2"/>
	<text transform="matrix(1 0 0 1 883.5035 449.4518)" class="st6 st17">ОГ</text>
	<text transform="matrix(1 0 0 1 879.4035 455.4518)" class="st6 st22">С-З ТЭЦ</text>
	
		<ellipse transform="matrix(0.1602 -0.9871 0.9871 0.1602 219.2679 1552.3186)" class="st16" cx="1021.9" cy="647.3" rx="14.2" ry="14.2"/>
	<text transform="matrix(1 0 0 1 1013.6647 645.6135)" class="st6 st17">ОГ</text>
	<text transform="matrix(1 0 0 1 1011.0647 651.6135)" class="st6 st22">ТЭЦ-22</text>
	<circle class="st16" cx="589.2" cy="621" r="14.2"/>
	<text transform="matrix(1 0 0 1 580.8906 619.3873)" class="st6 st17">ОГ</text>
	<text transform="matrix(1 0 0 1 580.4906 625.3873)" class="st6 st22">ЛАЭС</text>
	<circle class="st16" cx="433.4" cy="756.5" r="14.2"/>
	<text transform="matrix(1 0 0 1 425.0841 754.8712)" class="st6 st17">ОГ</text>
	<text transform="matrix(1 0 0 1 424.6841 760.8712)" class="st6 st22">ЛАЭС</text>
	<circle class="st16" cx="464.1" cy="756.5" r="14.2"/>
	<text transform="matrix(1 0 0 1 454.9765 754.8712)" class="st6 st23">ДРТ</text>
	<text transform="matrix(1 0 0 1 455.2765 760.8712)" class="st6 st8">240-1200</text>
	<circle class="st24" cx="1641.5" cy="690.8" r="14.2"/>
	<text transform="matrix(1 0 0 1 1634.4618 691.1293)" class="st6 st17">ОГ</text>
	<text transform="matrix(1 0 0 1 1631.7618 696.9293)" class="st6 st23">Новг</text>
	<circle class="st24" cx="2161.7" cy="478.7" r="14.2"/>
	<text transform="matrix(1 0 0 1 2154.5908 479.0647)" class="st6 st17">ОГ</text>
	<text transform="matrix(1 0 0 1 2149.9907 484.0647)" class="st6 st22">КирГРЭС</text>
</g>
<g id="Layer3">
	<path class="st25" d="M1332.2,601.4h-16.1c-5.1,0-9.2-4.1-9.2-9.2v-4.1c0-5.1,4.1-9.2,9.2-9.2h16.1c5.1,0,9.2,4.1,9.2,9.2v4.1
		C1341.4,597.3,1337.3,601.4,1332.2,601.4z"/>
	<path class="st25" d="M1371.6,602.5h-16.1c-5.1,0-9.2-4.1-9.2-9.2v-4.1c0-5.1,4.1-9.2,9.2-9.2h16.1c5.1,0,9.2,4.1,9.2,9.2v4.1
		C1380.9,598.4,1376.7,602.5,1371.6,602.5z"/>
	<path class="st25" d="M1332.2,653.5h-16.1c-5.1,0-9.2-4.1-9.2-9.2v-4c0-5.1,4.1-9.2,9.2-9.2h16.1c5.1,0,9.2,4.1,9.2,9.2v4
		C1341.4,649.4,1337.3,653.5,1332.2,653.5z"/>
	<path class="st25" d="M1557.2,602.8h-16.1c-5.1,0-9.2-4.1-9.2-9.2v-4.1c0-5.1,4.1-9.2,9.2-9.2h16.1c5.1,0,9.2,4.1,9.2,9.2v4.1
		C1566.5,598.6,1562.3,602.8,1557.2,602.8z"/>
	<path class="st25" d="M1646.5,491.8h-16.1c-5.1,0-9.2-4.1-9.2-9.2v-9.7c0-5.1,4.1-9.2,9.2-9.2h16.1c5.1,0,9.2,4.1,9.2,9.2v9.7
		C1655.7,487.6,1651.6,491.8,1646.5,491.8z"/>
	<path class="st25" d="M1691.7,491.8h-16.1c-5.1,0-9.2-4.1-9.2-9.2v-9.7c0-5.1,4.1-9.2,9.2-9.2h16.1c5.1,0,9.2,4.1,9.2,9.2v9.7
		C1700.9,487.6,1696.8,491.8,1691.7,491.8z"/>
	<path class="st25" d="M1113.1,448.9H1097c-5.1,0-9.2-4.1-9.2-9.2V430c0-5.1,4.1-9.2,9.2-9.2h16.1c5.1,0,9.2,4.1,9.2,9.2v9.7
		C1122.3,444.8,1118.2,448.9,1113.1,448.9z"/>
	<path class="st25" d="M2097.1,472.3H2081c-5.1,0-9.2-4.1-9.2-9.2v-26.7c0-5.1,4.1-9.2,9.2-9.2h16.1c5.1,0,9.2,4.1,9.2,9.2V463
		C2106.3,468.1,2102.2,472.3,2097.1,472.3z"/>
	<path class="st25" d="M2136.6,472.3h-16.1c-5.1,0-9.2-4.1-9.2-9.2v-26.7c0-5.1,4.1-9.2,9.2-9.2h16.1c5.1,0,9.2,4.1,9.2,9.2V463
		C2145.8,468.1,2141.7,472.3,2136.6,472.3z"/>
	<path class="st25" d="M1168.5,631.1h-16.1c-5.1,0-9.2-4.1-9.2-9.2v-26.7c0-5.1,4.1-9.2,9.2-9.2h16.1c5.1,0,9.2,4.1,9.2,9.2v26.7
		C1177.7,627,1173.5,631.1,1168.5,631.1z"/>
	<path class="st25" d="M1038.7,621h-16.1c-5.1,0-9.2-4.1-9.2-9.2v-26.7c0-5.1,4.1-9.2,9.2-9.2h16.1c5.1,0,9.2,4.1,9.2,9.2v26.7
		C1048,616.9,1043.8,621,1038.7,621z"/>
	<path class="st25" d="M410.6,740.3h-16.1c-5.1,0-9.2-4.1-9.2-9.2v-26.7c0-5.1,4.1-9.2,9.2-9.2h16.1c5.1,0,9.2,4.1,9.2,9.2V731
		C419.8,736.1,415.7,740.3,410.6,740.3z"/>
	<path class="st25" d="M543,831.6h-16.1c-5.1,0-9.2-4.1-9.2-9.2v-26.7c0-5.1,4.1-9.2,9.2-9.2H543c5.1,0,9.2,4.1,9.2,9.2v26.7
		C552.2,827.5,548.1,831.6,543,831.6z"/>
	<path class="st25" d="M731.3,750.3h-16.1c-5.1,0-9.2-4.1-9.2-9.2v-26.7c0-5.1,4.1-9.2,9.2-9.2h16.1c5.1,0,9.2,4.1,9.2,9.2v26.7
		C740.5,746.2,736.4,750.3,731.3,750.3z"/>
	<g>
		<g>
			<path class="st26" d="M1318.5,586.9V576c0-4.1-3.3-7.4-7.4-7.4H1044c-4.1,0-7.4,3.3-7.4,7.4v8.8"/>
			<g>
				<polygon class="st27" points="1320.2,584.9 1318.5,586.6 1316.8,584.9 1316.8,586.3 1318.5,588 1320.2,586.3 				"/>
			</g>
			<g>
				<polygon class="st27" points="1034.9,582.8 1036.6,584.5 1038.3,582.8 1038.3,584.2 1036.6,585.9 1034.9,584.2 				"/>
			</g>
		</g>
	</g>
	<g id="LU">
		<g>
			<path class="st26" d="M1320.1,588.5v-9.7c0-4.7-3.8-8.5-8.5-8.5H1044c-3.1,0-5.7,2.5-5.7,5.7v10.5"/>
			<g>
				<polygon class="st27" points="1321.8,586.5 1320.1,588.2 1318.4,586.5 1318.4,587.9 1320.1,589.6 1321.8,587.9 				"/>
			</g>
			<g>
				<polygon class="st27" points="1036.6,584.4 1038.3,586.1 1040,584.4 1040,585.9 1038.3,587.5 1036.6,585.9 				"/>
			</g>
		</g>
	</g>
	<g>
		<g>
			<path class="st26" d="M1324.1,584.8V560c0-3.1,2.5-5.7,5.7-5.7h620.7c3.1,0,5.7-2.5,5.7-5.7v-96.5c0-3.1,2.5-5.7,5.7-5.7h119.6"
				/>
			<g>
				<polygon class="st27" points="1325.8,582.8 1324.1,584.5 1322.4,582.8 1322.4,584.2 1324.1,585.9 1325.8,584.2 				"/>
			</g>
			<g>
				<polygon class="st27" points="2079.4,448.1 2081.1,446.5 2079.4,444.8 2080.9,444.8 2082.6,446.5 2080.9,448.1 				"/>
			</g>
		</g>
	</g>
	<g>
		<g>
			<path class="st26" d="M404.4,733.3v55.4c0,3.1,2.7,5.7,6.1,5.7H523"/>
			<g>
				<polygon class="st27" points="403,734.9 404.4,733.5 405.7,734.9 405.7,733.7 404.4,732.4 403,733.7 				"/>
			</g>
			<g>
				<polygon class="st27" points="521.4,795.7 522.7,794.3 521.4,793 522.5,793 523.9,794.3 522.5,795.7 				"/>
			</g>
		</g>
	</g>
	<g>
		<g>
			<line class="st26" x1="413" y1="732.4" x2="714.7" y2="732.4"/>
			<g>
				<polygon class="st27" points="415,734.1 413.3,732.4 415,730.7 413.6,730.7 411.9,732.4 413.6,734.1 				"/>
			</g>
			<g>
				<polygon class="st27" points="712.7,734.1 714.4,732.4 712.7,730.7 714.2,730.7 715.9,732.4 714.2,734.1 				"/>
			</g>
		</g>
	</g>
	<text transform="matrix(1 0 0 1 411.9033 793.7742)" class="st6 st28">ФОЛ, ФВЛ,ТО_от_АОПО -&gt;</text>
	<text transform="matrix(1 0 0 1 421.8387 732.3868)" class="st6 st28">ФОЛ, ФВЛ,ТО_от_АОПО -&gt;</text>
	<polyline class="st26" points="1315.9,645.7 696,700.9 696,726.2 411.9,726.2 	"/>
	<g>
		<g>
			<path class="st26" d="M1630.1,470.7v-45.9c0-3.1-2.5-5.7-5.6-5.7l-505-2.7c-3.1,0-5.7,2.5-5.7,5.7v5.6"/>
			<g>
				<polygon class="st27" points="1631.8,468.7 1630.1,470.4 1628.4,468.7 1628.4,470.2 1630.1,471.9 1631.8,470.2 				"/>
			</g>
			<g>
				<polygon class="st27" points="1112,425.8 1113.7,427.5 1115.4,425.8 1115.4,427.3 1113.7,429 1112,427.3 				"/>
			</g>
		</g>
	</g>
	<g>
		<g>
			<path class="st26" d="M1677.3,485.4v94.8c0,3.1-2.5,5.7-5.7,5.7h-114.3"/>
			<g>
				<polygon class="st27" points="1675.6,487.4 1677.3,485.7 1679,487.4 1679,486 1677.3,484.3 1675.6,486 				"/>
			</g>
			<g>
				<polygon class="st27" points="1559.3,584.2 1557.6,585.9 1559.3,587.6 1557.8,587.6 1556.1,585.9 1557.8,584.2 				"/>
			</g>
		</g>
	</g>
	<g>
		<g>
			<path class="st26" d="M1690.6,485.4v112.8c0,3.7-6.9,6.7-15.3,6.7h-306.1c-3.1,0-5.7-2.1-5.7-4.7v-5"/>
			<g>
				<polygon class="st27" points="1688.9,487.4 1690.6,485.7 1692.3,487.4 1692.3,486 1690.6,484.3 1688.9,486 				"/>
			</g>
			<g>
				<polygon class="st27" points="1365.3,597.2 1363.6,595.5 1361.9,597.2 1361.9,595.7 1363.6,594 1365.3,595.7 				"/>
			</g>
		</g>
	</g>
	<g>
		<g>
			<line class="st26" x1="1538" y1="585.9" x2="1373" y2="585.9"/>
			<g>
				<polygon class="st27" points="1536,584.2 1537.7,585.9 1536,587.6 1537.4,587.6 1539.1,585.9 1537.4,584.2 				"/>
			</g>
			<g>
				<polygon class="st27" points="1375,584.2 1373.3,585.9 1375,587.6 1373.6,587.6 1371.9,585.9 1373.6,584.2 				"/>
			</g>
		</g>
	</g>
	<rect x="1480" y="564" class="st29" width="48.4" height="2.8"/>
	<text transform="matrix(1 0 0 1 1481.311 566.2764)" class="st6 st30">Ленинградская (ПРМ) </text>
	<text transform="matrix(1 0 0 1 1507.311 566.2764)" class="st6 st28">← </text>
	<text transform="matrix(1 0 0 1 1509.911 566.2764)" class="st6 st30">Колпино (ПРД) </text>
	<rect x="1477.1" y="564" class="st31" width="2.9" height="2.8"/>
	<rect x="1480" y="580" class="st29" width="48.4" height="2.8"/>
	<text transform="matrix(1 0 0 1 1481.311 582.3304)" class="st6 st30">Ленинградская (ПРМ) </text>
	<text transform="matrix(1 0 0 1 1507.311 582.3304)" class="st6 st28">→ </text>
	<text transform="matrix(1 0 0 1 1509.911 582.3304)" class="st6 st30">Колпино (ПРД) </text>
	<rect x="1477.1" y="580" class="st31" width="2.9" height="2.8"/>
	<text transform="matrix(1 0 0 1 1480.3251 572.4227)" class="st6 st28">САОН ПС 330 кВ Парнас</text>
	<rect x="1477.1" y="570.1" class="st32" width="2.9" height="3.3"/>
	<text transform="matrix(1 0 0 1 1480.3251 569.1227)" class="st33"><tspan x="0" y="0" class="st6 st28">... </tspan><tspan x="2.2" y="0" class="st34 st6 st7">ФОЛ, ФВЛ</tspan></text>
	<rect x="1477.1" y="566.8" class="st32" width="2.9" height="3.3"/>
	<text transform="matrix(1 0 0 1 1480.3251 575.7292)" class="st6 st28">САОН ПС 330 кВ Завод Ильич</text>
	<rect x="1477.1" y="573.4" class="st32" width="2.9" height="3.3"/>
	<text transform="matrix(1 0 0 1 1480.3251 579.0356)" class="st6 st28">САОН ПС 330 кВ Северная</text>
	<rect x="1477.1" y="576.7" class="st32" width="2.9" height="3.3"/>
	<text transform="matrix(1 0 0 1 1389.4111 629.3401)" class="st6 st28">САОН ПС 330 кВ Парнас</text>
	<rect x="1386.2" y="627" class="st35" width="2.9" height="3.3"/>
	<text transform="matrix(1 0 0 1 1389.4198 619.4208)" class="st6 st28">ФСМ 3 ст</text>
	<rect x="1386.2" y="617.1" class="st32" width="2.9" height="3.3"/>
	<text transform="matrix(1 0 0 1 1480.3251 585.1767)" class="st33"><tspan x="0" y="0" class="st6 st28">... </tspan><tspan x="2.2" y="0" class="st34 st6 st7">ФОЛ, ФВЛ</tspan></text>
	<rect x="1477.1" y="582.9" class="st32" width="2.9" height="3.3"/>
	<rect x="1388.9" y="569.5" class="st29" width="48.4" height="2.8"/>
	<rect x="1386" y="569.5" class="st31" width="2.9" height="2.8"/>
	<rect x="1388.9" y="563.6" class="st29" width="48.4" height="2.8"/>
	<text transform="matrix(1 0 0 1 1390.2142 565.8586)" class="st6 st30">Ленинградская (ПРМ) </text>
	<text transform="matrix(1 0 0 1 1416.2142 565.8586)" class="st6 st28">→ </text>
	<text transform="matrix(1 0 0 1 1418.8142 565.8586)" class="st6 st30">Колпино (ПРД) </text>
	<rect x="1386" y="563.6" class="st31" width="2.9" height="2.8"/>
	<text transform="matrix(1 0 0 1 1389.2283 577.9509)" class="st6 st28">САОН ПС 330 кВ Парнас</text>
	<rect x="1386" y="575.6" class="st35" width="2.9" height="3.3"/>
	<text transform="matrix(1 0 0 1 1389.2283 581.2574)" class="st6 st28">САОН ПС 330 кВ Завод Ильич</text>
	<rect x="1386" y="578.9" class="st35" width="2.9" height="3.3"/>
	<text transform="matrix(1 0 0 1 1389.2283 584.5638)" class="st6 st28">САОН ПС 330 кВ Северная</text>
	<rect x="1386" y="582.2" class="st35" width="2.9" height="3.3"/>
	<text transform="matrix(1 0 0 1 1389.2283 568.7049)" class="st33"><tspan x="0" y="0" class="st6 st28">... </tspan><tspan x="2.2" y="0" class="st34 st6 st7">ФОЛ, ФВЛ</tspan></text>
	<rect x="1386" y="566.4" class="st32" width="2.9" height="3.3"/>
	<text transform="matrix(1 0 0 1 1389.2283 574.6049)" class="st33"><tspan x="0" y="0" class="st6 st28">... </tspan><tspan x="2.2" y="0" class="st34 st6 st7">ФОЛ, ФВЛ</tspan></text>
	<rect x="1386" y="572.3" class="st32" width="2.9" height="3.3"/>
	<rect x="1571.9" y="570.1" class="st29" width="48.4" height="2.8"/>
	<text transform="matrix(1 0 0 1 1573.1498 572.4175)" class="st6 st30">Колпино (ПРД) → Восточная (ПРМ) </text>
	<rect x="1569" y="570.1" class="st31" width="2.9" height="2.8"/>
	<rect x="1571.9" y="579.6" class="st29" width="48.4" height="2.8"/>
	<text transform="matrix(1 0 0 1 1573.1498 581.8586)" class="st6 st30">Колпино (ПРМ) ← Восточная (ПРД)</text>
	<rect x="1569" y="579.6" class="st31" width="2.9" height="2.8"/>
	<text transform="matrix(1 0 0 1 1572.1638 578.5638)" class="st6 st28">ОН ПС 400 кВ Выборгская</text>
	<rect x="1569" y="576.2" class="st32" width="2.9" height="3.3"/>
	<text transform="matrix(1 0 0 1 1680.3138 547.4672)" class="st6 st28">ОН ПС 400 кВ Выборгская</text>
	<rect x="1677.2" y="545.1" class="st32" width="2.9" height="3.3"/>
	<text transform="matrix(1 0 0 1 1572.1638 584.7049)" class="st33"><tspan x="0" y="0" class="st6 st28">... </tspan><tspan x="2.2" y="0" class="st34 st6 st7">ФОЛ, ФВЛ</tspan></text>
	<text transform="matrix(1 0 0 1 1680.3135 538.1243)" class="st33"><tspan x="0" y="0" class="st6 st28">... </tspan><tspan x="2.2" y="0" class="st34 st6 st7">ФОЛ, ФВЛ</tspan></text>
	<rect x="1569" y="582.4" class="st32" width="2.9" height="3.3"/>
	<text transform="matrix(1 0 0 1 1572.1638 575.2049)" class="st33"><tspan x="0" y="0" class="st6 st28">... </tspan><tspan x="2.2" y="0" class="st34 st6 st7">ФОЛ, ФВЛ</tspan></text>
	<rect x="1569" y="572.9" class="st32" width="2.9" height="3.3"/>
	<text transform="matrix(1 0 0 1 1389.4198 622.7272)" class="st6 st28">ФСМ 2 ст</text>
	<rect x="1386.2" y="620.4" class="st32" width="2.9" height="3.3"/>
	<text transform="matrix(1 0 0 1 1389.4423 610.1385)" class="st6 st28">ОГ 1 бл. СЗ ТЭЦ</text>
	<text transform="matrix(1 0 0 1 1389.4423 613.4449)" class="st6 st28">ОГ 2 бл. СЗ ТЭЦ</text>
	<text transform="matrix(1 0 0 1 1389.4198 626.0336)" class="st6 st28">ФСМ 1 ст</text>
	<rect x="1386.2" y="623.7" class="st32" width="2.9" height="3.3"/>
	<text transform="matrix(1 0 0 1 1389.4111 632.6465)" class="st6 st28">САОН ПС 330 кВ Завод Ильич</text>
	<rect x="1386.2" y="630.3" class="st35" width="2.9" height="3.3"/>
	<text transform="matrix(1 0 0 1 1389.4111 635.9531)" class="st6 st28">САОН ПС 330 кВ Северная</text>
	<rect x="1386.2" y="633.6" class="st35" width="2.9" height="3.3"/>
	<rect x="1389.2" y="604.9" class="st29" width="51.4" height="2.8"/>
	<text transform="matrix(1 0 0 1 1390.4283 607.2224)" class="st6 st30">Ленинградская (ПРД) → Восточная (ПРМ)</text>
	<text transform="matrix(1 0 0 1 1390.2144 571.7498)" class="st6 st30">Ленинградская (ПРМ) ← Колпино (ПРД)</text>
	<rect x="1386.3" y="604.9" class="st31" width="2.9" height="2.8"/>
	<rect x="1389.1" y="614.3" class="st29" width="51.4" height="2.8"/>
	<text transform="matrix(1 0 0 1 1390.3961 616.5635)" class="st6 st30">Ленинградская (ПРМ) ← Восточная (ПРД)</text>
	<rect x="1386.2" y="614.3" class="st31" width="2.9" height="2.8"/>
	<rect x="1386.3" y="611" class="st32" width="2.9" height="3.3"/>
	<rect x="1386.3" y="607.7" class="st32" width="2.9" height="3.3"/>
	<text transform="matrix(1 0 0 1 1693.7971 511.5516)" class="st6 st28">САОН ПС 330 кВ Парнас</text>
	<rect x="1690.6" y="509.2" class="st32" width="2.9" height="3.3"/>
	<text transform="matrix(1 0 0 1 1693.8058 501.6323)" class="st6 st28">ФСМ 3 ст</text>
	<rect x="1690.6" y="499.3" class="st32" width="2.9" height="3.3"/>
	<text transform="matrix(1 0 0 1 1693.8058 504.9387)" class="st6 st28">ФСМ 2 ст</text>
	<rect x="1690.6" y="502.6" class="st32" width="2.9" height="3.3"/>
	<text transform="matrix(1 0 0 1 1693.796 524.3499)" class="st6 st28">ОГ 1 бл. СЗ ТЭЦ</text>
	<text transform="matrix(1 0 0 1 1693.796 527.6564)" class="st6 st28">ОГ 2 бл. СЗ ТЭЦ</text>
	<text transform="matrix(1 0 0 1 1693.8058 508.2451)" class="st6 st28">ФСМ 1 ст</text>
	<rect x="1690.6" y="505.9" class="st32" width="2.9" height="3.3"/>
	<text transform="matrix(1 0 0 1 1693.7971 514.858)" class="st6 st28">САОН ПС 330 кВ Завод Ильич</text>
	<rect x="1690.6" y="512.5" class="st32" width="2.9" height="3.3"/>
	<text transform="matrix(1 0 0 1 1693.7971 518.1646)" class="st6 st28">САОН ПС 330 кВ Северная</text>
	<rect x="1690.6" y="515.8" class="st32" width="2.9" height="3.3"/>
	<rect x="1693.5" y="496.5" class="st29" width="51.4" height="2.8"/>
	<text transform="matrix(1 0 0 1 1694.7821 498.8339)" class="st6 st30">Восточная (ПРД) → Ленинградская (ПРМ)</text>
	<rect x="1690.6" y="496.5" class="st31" width="2.9" height="2.8"/>
	<rect x="1693.5" y="519.1" class="st29" width="51.4" height="2.8"/>
	<text transform="matrix(1 0 0 1 1694.7821 521.375)" class="st6 st30">Ленинградская (ПРМ) ← Восточная (ПРД)</text>
	<rect x="1690.6" y="519.1" class="st31" width="2.9" height="2.8"/>
	<rect x="1690.6" y="525.2" class="st35" width="2.9" height="3.3"/>
	<rect x="1690.6" y="521.9" class="st35" width="2.9" height="3.3"/>
	<rect x="1677.2" y="535.7" class="st32" width="2.9" height="3.3"/>
	<text transform="matrix(1 0 0 1 1680.3135 544.2242)" class="st33"><tspan x="0" y="0" class="st6 st28">... </tspan><tspan x="2.2" y="0" class="st34 st6 st7">ФРТ, ФВТ</tspan></text>
	<rect x="1677.2" y="541.8" class="st32" width="2.9" height="3.3"/>
	<text transform="matrix(1 0 0 1 1680.3135 550.8242)" class="st33"><tspan x="0" y="0" class="st6 st28">... </tspan><tspan x="2.2" y="0" class="st34 st6 st7">ФОЛ, ФВЛ</tspan></text>
	<rect x="1677.2" y="548.4" class="st32" width="2.9" height="3.3"/>
	<rect x="1680.1" y="532.9" class="st29" width="43.4" height="2.8"/>
	<text transform="matrix(1 0 0 1 1681.2998 535.2209)" class="st6 st30">Восточная (ПРД) → Колпино (ПРМ)</text>
	<rect x="1677.2" y="532.9" class="st31" width="2.9" height="2.8"/>
	<rect x="1680.1" y="539" class="st29" width="51.4" height="2.8"/>
	<text transform="matrix(1 0 0 1 1681.2998 541.2621)" class="st6 st30">Ленинградская (ПРМ) ← Восточная (ПРД)</text>
	<rect x="1677.2" y="539" class="st31" width="2.9" height="2.8"/>
	<text transform="matrix(1 0 0 1 1386.2787 577.6126)" class="st6 st28">-/- </text>
	<text transform="matrix(1 0 0 1 1386.2786 580.9755)" class="st6 st28">-/- </text>
	<text transform="matrix(1 0 0 1 1386.6663 629.3402)" class="st6 st28">-/- </text>
	<text transform="matrix(1 0 0 1 1386.666 632.2918)" class="st6 st28">-/- </text>
	<text transform="matrix(1 0 0 1 1386.6661 635.953)" class="st6 st28">-/- </text>
	<text transform="matrix(1 0 0 1 1386.2789 584.4594)" class="st6 st28">-/- </text>
	<text transform="matrix(1 0 0 1 1691.0953 524.3499)" class="st6 st28">-/- </text>
	<text transform="matrix(1 0 0 1 1691.095 527.6564)" class="st6 st28">-/- </text>
	<text transform="matrix(1 0 0 1 1477.4403 572.2941)" class="st6 st28">← </text>
	<text transform="matrix(1 0 0 1 1477.4404 568.907)" class="st6 st28">← </text>
	<text transform="matrix(1 0 0 1 1386.2788 574.6998)" class="st6 st28">← </text>
	<text transform="matrix(1 0 0 1 1386.6661 618.9971)" class="st6 st28">← </text>
	<text transform="matrix(1 0 0 1 1386.6661 622.4326)" class="st6 st28">← </text>
	<text transform="matrix(1 0 0 1 1386.6663 625.9681)" class="st6 st28">← </text>
	<text transform="matrix(1 0 0 1 1477.4402 575.657)" class="st6 st28">← </text>
	<text transform="matrix(1 0 0 1 1477.4406 579.1409)" class="st6 st28">← </text>
	<text transform="matrix(1 0 0 1 1569.5138 584.7048)" class="st6 st28">← </text>
	<text transform="matrix(1 0 0 1 1386.2789 568.5499)" class="st6 st28">→ </text>
	<text transform="matrix(1 0 0 1 1386.666 609.4998)" class="st6 st28">→ </text>
	<text transform="matrix(1 0 0 1 1386.666 613.2743)" class="st6 st28">→ </text>
	<text transform="matrix(1 0 0 1 1477.4402 585.1766)" class="st6 st28">→ </text>
	<text transform="matrix(1 0 0 1 1569.5143 578.5638)" class="st6 st28">→ </text>
	<text transform="matrix(1 0 0 1 1569.5139 575.2049)" class="st6 st28">→ </text>
	<text transform="matrix(1 0 0 1 1691.5884 501.1969)" class="st6 st28">↓ </text>
	<text transform="matrix(1 0 0 1 1691.5887 504.7775)" class="st6 st28">↓ </text>
	<text transform="matrix(1 0 0 1 1691.5881 507.9832)" class="st6 st28">↓ </text>
	<text transform="matrix(1 0 0 1 1691.5891 511.3461)" class="st6 st28">↓ </text>
	<text transform="matrix(1 0 0 1 1691.5892 514.6243)" class="st6 st28">↓ </text>
	<text transform="matrix(1 0 0 1 1691.5886 517.963)" class="st6 st28">↓ </text>
	<text transform="matrix(1 0 0 1 1678.0079 537.8339)" class="st6 st28">↓ </text>
	<text transform="matrix(1 0 0 1 1678.0081 544.2243)" class="st6 st28">↑ </text>
	<text transform="matrix(1 0 0 1 1678.0082 547.2566)" class="st6 st28">↑ </text>
	<text transform="matrix(1 0 0 1 1678.0085 550.4824)" class="st6 st28">↑ </text>
</g>
</svg>
