<?xml version="1.0" encoding="utf-8"?>
<!-- Generator: Adobe Illustrator 23.0.2, SVG Export Plug-In . SVG Version: 6.00 Build 0)  -->
<svg version="1.1" id="Слой_1" xmlns="http://www.w3.org/2000/svg" xmlns:xlink="http://www.w3.org/1999/xlink" x="0px" y="0px"
	 viewBox="0 0 435 480" style="enable-background:new 0 0 435 480;" xml:space="preserve">
<style type="text/css">
	.st0{fill:#EDA6A2;}
	.st1{fill:#FFFFFF;stroke:#EDA6A2;}
	.st2{fill:none;stroke:#22F400;stroke-width:2;}
	.st3{fill:none;stroke:#22F400;stroke-width:2;stroke-linecap:round;}
	.st4{fill:none;stroke:#22F400;stroke-miterlimit:10;}
	.st5{fill:none;stroke:#22F400;stroke-width:5;}
</style>
<symbol  id="Airport" viewBox="-8.2 -8.6 16.4 17.2">
	<g>
		<g>
			<path class="st0" d="M-1.3,3.4c0,0-0.1,5.2,1.3,5.2c1.5,0,1.4-5.3,1.4-5.3l6.5-5.5L8.2-4L1.3,0.2L0.8-5.8l1.9-2.2l0.1-0.7
				L0.1-7.9l-2.8-0.6l0.1,0.7l2.1,2.2l-0.7,5.9l-6.9-3.7l0.3,1.3L-1.3,3.4z"/>
		</g>
	</g>
</symbol>
<symbol  id="Go_to_Web" viewBox="-32 -33.9 64 67.8">
	<polygon class="st0" points="5.4,3.7 5.4,-30.4 14.2,-21.6 20.6,-33.9 25.2,-31.5 19.1,-19.7 30.9,-19.7 	"/>
	<path class="st0" d="M31.5-3.6c0.1,0.3,0.1,0.6,0.2,1c0,0.2,0,0.4,0.1,0.5c0,0.3,0.1,0.6,0.1,0.9c0,0.2,0,0.5,0.1,0.7
		c0,0.3,0,0.5,0.1,0.8c0,0.5,0,1,0,1.6c0,0.5,0,1,0,1.5c0,0.3,0,0.6-0.1,0.9c0,0.2,0,0.3,0,0.5c0,0.4-0.1,0.8-0.1,1.2
		c0,0.1,0,0.1,0,0.2c-0.1,0.4-0.1,0.8-0.2,1.3c0,0,0,0.1,0,0.1c0,0,0,0,0,0C29,21.6,17.3,32.5,2.9,33.8c0,0,0,0-0.1,0
		c-0.4,0-0.9,0.1-1.3,0.1c-0.5,0-1,0-1.5,0s-1,0-1.5,0c-0.4,0-0.9-0.1-1.3-0.1c0,0,0,0-0.1,0C-17.3,32.5-29,21.6-31.5,7.6
		c0,0,0,0,0,0c0,0,0-0.1,0-0.1c-0.1-0.4-0.1-0.8-0.2-1.3c0-0.1,0-0.1,0-0.2c-0.1-0.4-0.1-0.8-0.1-1.2c0-0.2,0-0.3,0-0.5
		c0-0.3-0.1-0.6-0.1-0.9c0-0.5,0-1,0-1.5c0-0.5,0-1,0-1.5c0-0.3,0-0.7,0.1-1c0-0.1,0-0.3,0-0.4c0-0.4,0.1-0.8,0.1-1.2
		c0,0,0-0.1,0-0.1c0.1-0.4,0.1-0.9,0.2-1.3c0,0,0,0,0,0h0c2.4-13.1,12.7-23.4,25.8-25.8c0,0,0,0,0,0c0.1,0,0.2,0,0.3,0
		c0.3-0.1,0.6-0.1,0.9-0.1c0.2,0,0.4-0.1,0.6-0.1c0.3,0,0.6-0.1,0.8-0.1c0.3,0,0.6,0,0.8-0.1c0.2,0,0.4,0,0.7,0c0.5,0,1,0,1.5,0
		c0,0,0.1,0,0.1,0v0.3v7.2c0,0-0.1,0-0.1,0c-1.4,0-2.8,0.1-4.2,0.4c-1.1,3.2-2,7.5-2.6,12.7C-4.6-9.7-2.3-9.8,0-9.8c0,0,0.1,0,0.1,0
		v4.3c0,0-0.1,0-0.1,0c-2.6,0-5,0.1-7.2,0.2c-0.2,2.2-0.2,4.6-0.2,7.2c0,2.6,0.1,5,0.2,7.2C-5,9.3-2.6,9.3,0,9.3
		c2.5,0,4.9-0.1,7.2-0.2c0-0.1,0-0.3,0-0.4C7.9,8.5,8.5,8.1,9,7.6l2.6-2.4c0,1.2-0.1,2.3-0.2,3.5c5.2-0.6,9.5-1.6,12.7-2.6
		c0.2-1.4,0.4-2.8,0.4-4.2c0-1.4-0.1-2.8-0.4-4.2c-1-0.3-2.1-0.6-3.3-0.9l2.5-2.3c0,0,0,0,0,0l5.9-5.4c1,2.3,1.7,4.7,2.2,7.2
		c0,0,0,0,0,0C31.5-3.7,31.5-3.7,31.5-3.6z M-9.1,24.7c-0.9-3.4-1.6-7.4-2.1-11.7c-4.3-0.5-8.3-1.2-11.7-2.1
		C-20.3,17.2-15.3,22.2-9.1,24.7z M-9.1-20.9c-6.3,2.5-11.3,7.5-13.8,13.8c3.4-0.9,7.4-1.6,11.7-2.1C-10.7-13.5-10-17.5-9.1-20.9z
		 M-11.5-4.9c-5.2,0.6-9.5,1.6-12.7,2.6c-0.2,1.4-0.4,2.8-0.4,4.2c0,1.4,0.1,2.8,0.4,4.2c3.2,1.1,7.5,2,12.7,2.6
		c-0.1-2.2-0.2-4.5-0.2-6.8C-11.7-0.4-11.6-2.7-11.5-4.9z M0,13.6c-2.3,0-4.6-0.1-6.8-0.2c0.6,5.2,1.6,9.5,2.6,12.7
		c1.4,0.2,2.8,0.4,4.2,0.4c1.4,0,2.8-0.1,4.2-0.4c1.1-3.2,2-7.5,2.6-12.7C4.6,13.5,2.3,13.6,0,13.6z M11.1,13
		C10.7,17.3,10,21.3,9,24.7c6.3-2.5,11.3-7.5,13.8-13.8C19.4,11.9,15.4,12.6,11.1,13z"/>
</symbol>
<symbol  id="School" viewBox="-3.8 -6.8 7.7 13.6">
	<g>
		<rect x="-3.8" y="-6.8" class="st0" width="7.4" height="7.4"/>
		<rect x="-1.6" y="0.6" class="st0" width="2.8" height="2.1"/>
		<polygon class="st0" points="-0.5,6.8 0,6.7 3.8,6 -0.1,4.9 -0.1,1.1 -0.5,1.1 		"/>
	</g>
</symbol>
<symbol  id="US_Highway" viewBox="-9.6 -10.8 19.1 21.6">
	<path class="st1" d="M0-9.6C-1.7-6-6.3-6.1-7.9-3.8c-1.6,2.3-1.6,3.7,0.5,6.6c2,2.9-1.1,4.8-1.1,4.8l2.1,2.4C-2.7,6.4,0,10,0,10
		s2.7-3.6,6.4,0.1l2.1-2.4c0,0-3.2-1.9-1.1-4.8c2-2.9,2-4.5,0.5-6.6C6.3-6,1.7-6,0-9.6z"/>
</symbol>
<g id="a1">
	<path class="st2" d="M125.1,119.7c0,20.4-17.4,37-39,37c-21.6,0-39-16.6-39-37s17.4-37,39-37C107.7,82.7,125.1,99.3,125.1,119.7z"
		/>
	<path class="st3" d="M67.9,349.9l14.6-193.4"/>
	
		<use xlink:href="#Go_to_Web"  width="64" height="67.8" id="XMLID_1_" x="-32" y="-33.9" transform="matrix(0.5411 0 0 -0.5411 86.1065 119.7122)" style="display:none;overflow:visible;"/>
</g>
<g id="a2">
	<path class="st3" d="M137,397.7l230.4-149.1"/>
	<path class="st2" d="M433.2,219.9c0,20.4-17.4,37-39,37c-21.6,0-39-16.6-39-37s17.4-37,39-37C415.8,182.9,433.2,199.5,433.2,219.9z
		"/>
	
		<use xlink:href="#Airport"  width="16.4" height="17.2" id="XMLID_3_" x="-8.2" y="-8.6" transform="matrix(2.3327 0 0 -2.3327 394.149 219.8549)" style="display:none;overflow:visible;"/>
</g>
<g id="a3">
	<path class="st2" d="M405.3,413.2c0,20.4-17.4,37-39,37c-21.6,0-39-16.6-39-37s17.4-37,39-37C387.9,376.3,405.3,392.9,405.3,413.2z
		"/>
	<path class="st3" d="M144.3,436.3l184.3-12.7"/>
	
		<use xlink:href="#US_Highway"  width="19.1" height="21.6" id="XMLID_4_" x="-9.6" y="-10.8" transform="matrix(2.118 0 0 -2.118 364.9102 415.5984)" style="display:none;overflow:visible;"/>
</g>
<g id="a4">
	<path class="st2" d="M217.3,269.4c0,20.4-17.4,37-39,37c-21.6,0-39-16.6-39-37s17.4-37,39-37C199.9,232.4,217.3,249,217.3,269.4z"
		/>
	<path class="st3" d="M107.9,362.6l54.6-59.9"/>
	
		<use xlink:href="#School"  width="7.7" height="13.6" id="XMLID_2_" x="-3.8" y="-6.8" transform="matrix(3.2305 0 0 -3.2305 178.997 268.6382)" style="display:none;overflow:visible;"/>
</g>
<g id="home">
	<path class="st4" d="M54.6,447.8V434h9.7v13.8h12.1v-18.4h7.3l-24.3-20.7l-24.3,20.7h7.3v18.4H54.6z"/>
	<path class="st5" d="M144.2,429.4c0,44.3-37.8,80.4-84.8,80.4c-47,0-84.8-36.1-84.8-80.4S12.5,349,59.4,349
		C106.4,349,144.2,385.1,144.2,429.4z"/>
</g>
</svg>
