<svg id="Слой_1" data-name="Слой 1" xmlns="http://www.w3.org/2000/svg" xmlns:xlink="http://www.w3.org/1999/xlink" viewBox="0 0 448.26 788.52"><defs><style>.cls-1,.cls-15,.cls-2,.cls-46,.cls-6,.cls-9{stroke:#201600;}.cls-1,.cls-11,.cls-15,.cls-18,.cls-2,.cls-23,.cls-46,.cls-6,.cls-9{stroke-miterlimit:10;}.cls-1{fill:url(#Угасающее_небо);}.cls-2{fill:#c9c8c8;}.cls-3{font-size:11px;fill:#201600;font-family:ArialMT, Arial;}.cls-4{letter-spacing:0.01em;}.cls-5{letter-spacing:-0.02em;}.cls-6{fill:url(#Безымянный_градиент_9);}.cls-7{letter-spacing:-0.03em;}.cls-8{letter-spacing:-0.01em;}.cls-9{fill:url(#Безымянный_градиент_9-2);}.cls-10{letter-spacing:-0.08em;}.cls-11,.cls-15,.cls-18,.cls-23{fill:none;}.cls-11{stroke:#52ac62;}.cls-12{letter-spacing:-0.03em;}.cls-13{letter-spacing:-0.01em;}.cls-14{letter-spacing:0em;}.cls-16{letter-spacing:-0.07em;}.cls-17{letter-spacing:-0.04em;}.cls-18{stroke:#d24a43;}.cls-19{fill:#52ac62;}.cls-20{letter-spacing:-0.1em;}.cls-21{letter-spacing:-0.11em;}.cls-22{letter-spacing:0.02em;}.cls-23{stroke:#3eb5f1;}.cls-24{font-size:9px;fill:#6b6966;font-family:MyriadPro-Regular, Myriad Pro;}.cls-25{letter-spacing:-0.01em;}.cls-26{letter-spacing:0em;}.cls-27{letter-spacing:0em;}.cls-28{letter-spacing:0em;}.cls-29{letter-spacing:-0.01em;}.cls-30{letter-spacing:0em;}.cls-31{letter-spacing:-0.01em;}.cls-32{letter-spacing:0em;}.cls-33{letter-spacing:0.01em;}.cls-34{letter-spacing:-0.01em;}.cls-35{letter-spacing:0em;}.cls-36{letter-spacing:0em;}.cls-37{letter-spacing:0.02em;}.cls-38{letter-spacing:-0.01em;}.cls-39{letter-spacing:0.01em;}.cls-40{letter-spacing:-0.02em;}.cls-41{letter-spacing:0.02em;}.cls-42{letter-spacing:-0.01em;}.cls-43{letter-spacing:0em;}.cls-44{letter-spacing:0.02em;}.cls-45{letter-spacing:-0.08em;}.cls-46{fill:url(#Безымянный_градиент_9-3);}</style><linearGradient id="Угасающее_небо" x1="206.77" y1="12.33" x2="206.77" y2="36.85" gradientUnits="userSpaceOnUse"><stop offset="0" stop-color="#6086c4"/><stop offset="1" stop-color="#6086c4" stop-opacity="0"/></linearGradient><linearGradient id="Безымянный_градиент_9" x1="263.77" y1="111.56" x2="263.77" y2="136.07" gradientUnits="userSpaceOnUse"><stop offset="0" stop-color="#a897c7"/><stop offset="1" stop-color="#cc9b7d" stop-opacity="0"/></linearGradient><linearGradient id="Безымянный_градиент_9-2" x1="73.9" y1="505.52" x2="73.9" y2="555.65" xlink:href="#Безымянный_градиент_9"/><linearGradient id="Безымянный_градиент_9-3" x1="212.62" y1="591.56" x2="212.62" y2="627.74" xlink:href="#Безымянный_градиент_9"/></defs><title>SH</title><rect class="cls-1" x="153.77" y="12.33" width="106" height="24.52"/><rect class="cls-2" x="10.74" y="496.65" width="417.26" height="69.16"/><text class="cls-3" transform="translate(164.65 28.09)">От<tspan class="cls-4" x="13.59" y="0">к</tspan><tspan x="18.53" y="0">л</tspan><tspan class="cls-5" x="24.95" y="0">ю</tspan><tspan x="32.96" y="0">чение СШ</tspan></text><rect class="cls-6" x="210.77" y="111.56" width="106" height="24.52"/><text class="cls-3" transform="translate(232 127.31)"><tspan class="cls-7">Р</tspan><tspan x="6.97" y="0">аб</tspan><tspan class="cls-5" x="19.39" y="0">о</tspan><tspan class="cls-8" x="25.27" y="0">т</tspan><tspan x="30.18" y="0">а ДЗШ</tspan></text><rect class="cls-9" x="20.9" y="505.52" width="106" height="50.12"/><text class="cls-3" transform="translate(31.54 521.28)"><tspan class="cls-7">Р</tspan><tspan x="6.97" y="0">аб</tspan><tspan class="cls-5" x="19.39" y="0">о</tspan><tspan class="cls-8" x="25.27" y="0">т</tspan><tspan x="30.18" y="0">а защит </tspan><tspan class="cls-5" x="73.8" y="0">о</tspan><tspan x="79.68" y="0">т</tspan><tspan x="13.12" y="13.2">внутренних</tspan><tspan x="-6.93" y="26.4">повр</tspan><tspan class="cls-8" x="17.1" y="26.4">е</tspan><tspan x="23.1" y="26.4">ждений </tspan><tspan class="cls-10" x="64.41" y="26.4">А</tspan><tspan x="70.89" y="26.4">Т(Т)</tspan></text><polygon class="cls-11" points="329.16 89.8 41.96 89.8 84.37 49.54 371.57 49.54 329.16 89.8"/><text class="cls-3" transform="translate(85.62 62.31)"><tspan class="cls-8">Е</tspan><tspan x="7.21" y="0">сть ли в </tspan><tspan class="cls-5" x="51.06" y="0">Р</tspan><tspan x="58.15" y="0">У пер</tspan><tspan class="cls-4" x="86.39" y="0">с</tspan><tspan x="92.01" y="0">онал?</tspan><tspan x="0" y="11">Про</tspan><tspan class="cls-8" x="20.14" y="11">в</tspan><tspan class="cls-5" x="25.86" y="11">о</tspan><tspan x="31.74" y="11">дя</tspan><tspan class="cls-8" x="44.11" y="11">т</tspan><tspan x="49.03" y="11">ся раб</tspan><tspan class="cls-5" x="82.08" y="11">о</tspan><tspan x="87.95" y="11">ты на первичном обо</tspan><tspan class="cls-8" x="196.46" y="11">р</tspan><tspan class="cls-12" x="202.45" y="11">у</tspan><tspan x="207.59" y="11">до</tspan><tspan class="cls-13" x="220.12" y="11">в</tspan><tspan class="cls-14" x="225.84" y="11">ании?</tspan><tspan x="0" y="22">Про</tspan><tspan class="cls-8" x="20.14" y="22">в</tspan><tspan class="cls-5" x="25.86" y="22">о</tspan><tspan x="31.74" y="22">дя</tspan><tspan class="cls-8" x="44.11" y="22">т</tspan><tspan x="49.03" y="22">ся раб</tspan><tspan class="cls-5" x="82.08" y="22">о</tspan><tspan x="87.95" y="22">ты в </tspan><tspan class="cls-8" x="112.85" y="22">ц</tspan><tspan x="119.03" y="22">епях </tspan><tspan class="cls-5" x="145.62" y="22">Р</tspan><tspan x="152.71" y="22">ЗА?</tspan></text><polygon class="cls-11" points="316.54 188 192.71 188 211 148.07 334.82 148.07 316.54 188"/><text class="cls-3" transform="translate(212.62 160.84)">С<tspan class="cls-4" x="7.94" y="0">к</tspan><tspan class="cls-5" x="12.88" y="0">о</tspan><tspan x="18.76" y="0">ль</tspan><tspan class="cls-4" x="30.91" y="0">к</tspan><tspan x="35.84" y="0">о </tspan><tspan class="cls-4" x="45.02" y="0">к</tspan><tspan x="49.95" y="0">омпле</tspan><tspan class="cls-4" x="82.12" y="0">к</tspan><tspan class="cls-8" x="87.06" y="0">т</tspan><tspan x="91.97" y="0">ов</tspan><tspan x="0" y="11">есть / сраб</tspan><tspan class="cls-5" x="55.59" y="11">о</tspan><tspan class="cls-8" x="61.47" y="11">т</tspan><tspan x="66.38" y="11">а</tspan><tspan class="cls-4" x="72.5" y="11">л</tspan><tspan x="79.04" y="11">о?</tspan><tspan x="0" y="22">Признаки </tspan><tspan class="cls-8" x="51.42" y="22">К</tspan><tspan x="57.7" y="22">З?</tspan></text><text class="cls-3" transform="translate(231.68 237.8)">К<tspan class="cls-5" x="6.41" y="0">РУ</tspan><tspan x="20.25" y="0">Э / З</tspan><tspan class="cls-5" x="43.97" y="0">Р</tspan><tspan x="51.06" y="0">У?</tspan></text><polygon class="cls-15" points="263.59 266.82 196.49 233.27 263.59 199.71 330.7 233.27 263.59 266.82"/><text class="cls-3" transform="translate(115.27 290.9)"><tspan class="cls-8">А</tspan><tspan x="7.21" y="0">ПВ?</tspan></text><polygon class="cls-15" points="129.38 305.66 80.19 286.37 129.38 267.09 178.57 286.37 129.38 305.66"/><text class="cls-3" transform="translate(181.46 699.24)"><tspan class="cls-16">У</tspan><tspan x="6.25" y="0">спешно?</tspan></text><polygon class="cls-15" points="206.77 713.99 157.57 694.71 206.77 675.42 255.96 694.71 206.77 713.99"/><text class="cls-3" transform="translate(28.85 386.11)">Про<tspan class="cls-17" x="20.14" y="0">б</tspan><tspan x="25.95" y="0">лемы с</tspan><tspan x="4.77" y="11">р</tspan><tspan class="cls-8" x="10.88" y="11">е</tspan><tspan x="16.88" y="11">жимом?</tspan></text><polygon class="cls-15" points="59.93 413.19 10.74 387.24 59.93 361.29 109.12 387.24 59.93 413.19"/><rect class="cls-18" x="288.42" y="301.09" width="129.74" height="64.2"/><text class="cls-3" transform="translate(297.05 314.84)">Осм<tspan class="cls-5" x="21.62" y="0">о</tspan><tspan x="27.49" y="0">тр обо</tspan><tspan class="cls-8" x="60.24" y="0">р</tspan><tspan class="cls-7" x="66.24" y="0">у</tspan><tspan x="71.37" y="0">до</tspan><tspan class="cls-8" x="83.91" y="0">в</tspan><tspan x="89.63" y="0">ания</tspan><tspan x="-2.67" y="11">в</tspan><tspan class="cls-8" x="3.17" y="11">х</tspan><tspan class="cls-5" x="8.55" y="11">о</tspan><tspan x="14.43" y="11">дя</tspan><tspan class="cls-8" x="26.8" y="11">щ</tspan><tspan x="35.73" y="11">е</tspan><tspan class="cls-5" x="41.85" y="11">г</tspan><tspan x="45.62" y="11">о в </tspan><tspan class="cls-8" x="63.69" y="11">з</tspan><tspan x="68.61" y="11">ону ДЗШ,</tspan><tspan x="-2.95" y="22">выявить повр</tspan><tspan class="cls-8" x="66.6" y="22">е</tspan><tspan x="72.6" y="22">жденное</tspan><tspan x="19.24" y="33">обо</tspan><tspan class="cls-8" x="37.78" y="33">р</tspan><tspan class="cls-7" x="43.77" y="33">у</tspan><tspan x="48.91" y="33">до</tspan><tspan class="cls-8" x="61.45" y="33">в</tspan><tspan x="67.17" y="33">ание,</tspan><tspan class="cls-19"><tspan x="9.6" y="44">з</tspan><tspan class="cls-5" x="14.64" y="44">а</tspan><tspan class="cls-8" x="20.52" y="44">т</tspan><tspan x="25.43" y="44">ем опробо</tspan><tspan class="cls-8" x="78.9" y="44">в</tspan><tspan class="cls-5" x="84.62" y="44">а</tspan><tspan x="90.49" y="44">ть.</tspan></tspan></text><rect class="cls-18" x="166.61" y="505.52" width="251.54" height="50.12"/><text class="cls-3" transform="translate(173.88 522.27)">— От<tspan class="cls-4" x="27.65" y="0">к</tspan><tspan x="32.59" y="0">л</tspan><tspan class="cls-5" x="39" y="0">ю</tspan><tspan x="47.01" y="0">чить р</tspan><tspan class="cls-8" x="78.83" y="0">а</tspan><tspan class="cls-5" x="84.83" y="0">з</tspan><tspan x="89.63" y="0">ъ</tspan><tspan class="cls-5" x="96.5" y="0">е</tspan><tspan x="102.38" y="0">дени</tspan><tspan class="cls-8" x="127.13" y="0">т</tspan><tspan class="cls-7" x="132.05" y="0">е</tspan><tspan x="137.8" y="0">ль </tspan><tspan class="cls-10" x="153.01" y="0">А</tspan><tspan x="159.48" y="0">Т(Т)</tspan><tspan x="0" y="11">— Опробо</tspan><tspan class="cls-8" x="53.22" y="11">в</tspan><tspan class="cls-5" x="58.94" y="11">а</tspan><tspan x="64.82" y="11">ть СШ</tspan><tspan x="0" y="22">— Восс</tspan><tspan class="cls-8" x="38.51" y="22">т</tspan><tspan x="43.43" y="22">ановить СШ, с</tspan><tspan class="cls-8" x="117.19" y="22">х</tspan><tspan x="122.56" y="22">е</tspan><tspan class="cls-4" x="128.68" y="22">м</tspan><tspan class="cls-20" x="136.37" y="22">у</tspan><tspan x="140.77" y="22">, п</tspan><tspan class="cls-5" x="152.83" y="22">о</tspan><tspan x="158.71" y="22">тр</tspan><tspan class="cls-8" x="169.87" y="22">е</tspan><tspan x="175.86" y="22">би</tspan><tspan class="cls-8" x="188.31" y="22">т</tspan><tspan class="cls-7" x="193.22" y="22">е</tspan><tspan x="198.97" y="22">ля</tspan></text><rect class="cls-18" x="10.74" y="726.64" width="179.33" height="50.12"/><text class="cls-3" transform="translate(16.68 743.38)">— От<tspan class="cls-4" x="27.65" y="0">к</tspan><tspan x="32.59" y="0">л</tspan><tspan class="cls-5" x="39" y="0">ю</tspan><tspan x="47.01" y="0">чить р</tspan><tspan class="cls-8" x="78.83" y="0">а</tspan><tspan class="cls-5" x="84.83" y="0">з</tspan><tspan x="89.63" y="0">ъ</tspan><tspan class="cls-5" x="96.5" y="0">е</tspan><tspan x="102.38" y="0">дени</tspan><tspan class="cls-8" x="127.13" y="0">т</tspan><tspan class="cls-7" x="132.05" y="0">е</tspan><tspan x="137.8" y="0">ли</tspan><tspan x="0" y="11">— Опробо</tspan><tspan class="cls-8" x="53.22" y="11">в</tspan><tspan class="cls-5" x="58.94" y="11">а</tspan><tspan x="64.82" y="11">ть СШ</tspan><tspan x="0" y="22">— Восс</tspan><tspan class="cls-8" x="38.51" y="22">т</tspan><tspan x="43.43" y="22">ановить пи</tspan><tspan class="cls-8" x="99.65" y="22">т</tspan><tspan x="104.56" y="22">ание</tspan></text><rect class="cls-18" x="223.1" y="726.64" width="176.93" height="50.12"/><text class="cls-3" transform="translate(232.75 743.38)">Вы<tspan class="cls-4" x="15.24" y="0">к</tspan><tspan x="20.18" y="0">л</tspan><tspan class="cls-5" x="26.6" y="0">ю</tspan><tspan x="34.61" y="0">ч</tspan><tspan class="cls-5" x="40.34" y="0">а</tspan><tspan class="cls-8" x="46.21" y="0">т</tspan><tspan class="cls-7" x="51.13" y="0">е</tspan><tspan x="56.88" y="0">ль в ремон</tspan><tspan class="cls-21" x="112.98" y="0">т</tspan><tspan x="116.79" y="0">.</tspan><tspan x="0" y="11">В</tspan><tspan class="cls-8" x="7.34" y="11">в</tspan><tspan class="cls-5" x="13.06" y="11">о</tspan><tspan x="18.93" y="11">д в раб</tspan><tspan class="cls-5" x="55.84" y="11">о</tspan><tspan class="cls-4" x="61.72" y="11">т</tspan><tspan x="66.88" y="11">у после</tspan><tspan x="0" y="22">п</tspan><tspan class="cls-5" x="5.96" y="22">о</tspan><tspan x="11.83" y="22">дт</tspan><tspan class="cls-8" x="23.29" y="22">в</tspan><tspan x="29.01" y="22">ерждения </tspan><tspan class="cls-4" x="82.37" y="22">с</tspan><tspan x="87.99" y="22">о</tspan><tspan class="cls-8" x="94.11" y="22">б</tspan><tspan x="100.29" y="22">ст</tspan><tspan class="cls-8" x="110.83" y="22">в</tspan><tspan x="116.55" y="22">енни</tspan><tspan class="cls-22" x="140.96" y="22">к</tspan><tspan x="146.01" y="22">а.</tspan></text><polyline class="cls-18" points="330.7 233.27 353.29 233.27 353.29 301.1"/><polyline class="cls-23" points="196.49 233.27 129.38 233.27 129.38 266.82"/><line class="cls-18" x1="263.77" y1="136.07" x2="263.77" y2="148.07"/><line class="cls-18" x1="263.77" y1="187.72" x2="263.59" y2="199.71"/><text class="cls-24" transform="translate(337.93 163.39)">М<tspan class="cls-25" x="7.24" y="0">о</tspan><tspan x="12.1" y="0">жно пр</tspan><tspan class="cls-26" x="39.86" y="0">е</tspan><tspan x="44.4" y="0">дп</tspan><tspan class="cls-27" x="54.04" y="0">о</tspan><tspan class="cls-28" x="59.01" y="0">л</tspan><tspan class="cls-29" x="63.58" y="0">о</tspan><tspan x="68.44" y="0">ж</tspan><tspan class="cls-30" x="74.45" y="0">и</tspan><tspan class="cls-31" x="79.41" y="0">т</tspan><tspan x="83.04" y="0">ь </tspan><tspan x="0" y="10.8">л</tspan><tspan class="cls-29" x="4.56" y="10.8">о</tspan><tspan x="9.43" y="10.8">ж</tspan><tspan class="cls-32" x="15.43" y="10.8">н</tspan><tspan x="20.31" y="10.8">ую раб</tspan><tspan class="cls-29" x="47.02" y="10.8">о</tspan><tspan class="cls-33" x="51.88" y="10.8">т</tspan><tspan x="55.71" y="10.8">у </tspan><tspan class="cls-34" x="61.86" y="10.8">к</tspan><tspan class="cls-35" x="66.11" y="10.8">ом</tspan><tspan class="cls-36" x="76.8" y="10.8">п</tspan><tspan x="81.71" y="10.8">ле</tspan><tspan class="cls-37" x="90.78" y="10.8">к</tspan><tspan class="cls-38" x="95.25" y="10.8">т</tspan><tspan x="98.82" y="10.8">а</tspan></text><text class="cls-24" transform="translate(364.02 74.83)"><tspan class="cls-39">О</tspan><tspan class="cls-40" x="6.32" y="0">т</tspan><tspan class="cls-41" x="9.84" y="0">с</tspan><tspan class="cls-42" x="14.01" y="0">т</tspan><tspan x="17.65" y="0">ран</tspan><tspan class="cls-43" x="32.02" y="0">и</tspan><tspan class="cls-42" x="36.98" y="0">т</tspan><tspan class="cls-28" x="40.62" y="0">ь </tspan><tspan class="cls-25" x="47.01" y="0">о</tspan><tspan x="51.88" y="0">т</tspan><tspan x="0" y="10.8">произв</tspan><tspan class="cls-42" x="28.3" y="10.8">о</tspan><tspan class="cls-32" x="33.17" y="10.8">д</tspan><tspan class="cls-44" x="37.91" y="10.8">с</tspan><tspan class="cls-42" x="42.08" y="10.8">т</tspan><tspan x="45.72" y="10.8">ва раб</tspan><tspan class="cls-25" x="70.68" y="10.8">о</tspan><tspan class="cls-45" x="75.54" y="10.8">т</tspan><tspan class="cls-35" x="78.56" y="10.8">.</tspan></text><rect class="cls-15" x="20.9" y="322.28" width="78.06" height="22.39"/><text class="cls-3" transform="translate(43.56 330.99)">От<tspan class="cls-22" x="13.59" y="0">к</tspan><tspan class="cls-8" x="18.65" y="0">а</tspan><tspan x="24.64" y="0">з,</tspan><tspan class="cls-5" x="-13.14" y="11">о</tspan><tspan class="cls-8" x="-7.26" y="11">т</tspan><tspan x="-2.34" y="11">су</tspan><tspan class="cls-8" x="8.66" y="11">т</tspan><tspan x="13.57" y="11">ст</tspan><tspan class="cls-5" x="24.11" y="11">в</tspan><tspan class="cls-8" x="29.71" y="11">у</tspan><tspan class="cls-7" x="35.09" y="11">е</tspan><tspan x="40.84" y="11">т</tspan></text><rect class="cls-15" x="157.46" y="321.46" width="78.06" height="22.39"/><text class="cls-3" transform="translate(167.53 336.17)">Н<tspan class="cls-8" x="7.94" y="0">еу</tspan><tspan x="19.31" y="0">спешно</tspan></text><rect class="cls-15" x="126.48" y="640.39" width="172.27" height="22.39"/><text class="cls-3" transform="translate(132 655.09)">П<tspan class="cls-5" x="7.91" y="0">о</tspan><tspan x="13.78" y="0">д</tspan><tspan class="cls-5" x="20.2" y="0">а</tspan><tspan x="26.08" y="0">ть имп</tspan><tspan class="cls-5" x="59.57" y="0">у</tspan><tspan x="64.82" y="0">льс на </tspan><tspan class="cls-5" x="100.78" y="0">о</tspan><tspan x="106.65" y="0">т</tspan><tspan class="cls-4" x="111.69" y="0">к</tspan><tspan x="116.63" y="0">л</tspan><tspan class="cls-5" x="123.05" y="0">ю</tspan><tspan x="131.05" y="0">чение</tspan></text><polyline class="cls-23" points="80.19 286.37 59.93 286.37 59.93 322.28"/><polyline class="cls-18" points="178.57 286.37 196.49 286.37 196.49 321.46"/><line class="cls-23" x1="59.93" y1="344.67" x2="59.93" y2="361.29"/><rect class="cls-18" x="21.07" y="429.82" width="78.06" height="36.68"/><text class="cls-3" transform="translate(30.06 446.52)">Опробо<tspan class="cls-8" x="39.17" y="0">в</tspan><tspan class="cls-5" x="44.89" y="0">а</tspan><tspan x="50.76" y="0">ть</tspan><tspan x="-3.97" y="11">нап</tspan><tspan class="cls-8" x="14.18" y="11">р</tspan><tspan x="20.17" y="11">яжением</tspan></text><line class="cls-23" x1="59.93" y1="413.19" x2="59.93" y2="429.82"/><line class="cls-18" x1="235.52" y1="332.66" x2="288.42" y2="332.66"/><polyline class="cls-23" points="99.13 448.16 129.55 448.16 129.38 333.19 157.46 333.48"/><line class="cls-18" x1="126.9" y1="530.58" x2="166.61" y2="530.58"/><rect class="cls-46" x="119.9" y="591.56" width="185.43" height="36.19"/><text class="cls-3" transform="translate(177.95 607.31)"><tspan class="cls-7">Р</tspan><tspan x="6.97" y="0">аб</tspan><tspan class="cls-5" x="19.39" y="0">о</tspan><tspan class="cls-8" x="25.27" y="0">т</tspan><tspan x="30.18" y="0">а У</tspan><tspan class="cls-5" x="46.34" y="0">Р</tspan><tspan x="53.44" y="0">ОВ</tspan><tspan x="-54.13" y="13.2">(</tspan><tspan class="cls-5" x="-50.47" y="13.2">о</tspan><tspan x="-44.59" y="13.2">т</tspan><tspan class="cls-22" x="-39.56" y="13.2">к</tspan><tspan class="cls-8" x="-34.5" y="13.2">а</tspan><tspan x="-28.51" y="13.2">з в </tspan><tspan class="cls-5" x="-11.51" y="13.2">о</tspan><tspan x="-5.63" y="13.2">т</tspan><tspan class="cls-4" x="-0.59" y="13.2">к</tspan><tspan x="4.34" y="13.2">л</tspan><tspan class="cls-5" x="10.76" y="13.2">ю</tspan><tspan x="18.77" y="13.2">чении вы</tspan><tspan class="cls-4" x="65.79" y="13.2">к</tspan><tspan x="70.72" y="13.2">л</tspan><tspan class="cls-5" x="77.14" y="13.2">ю</tspan><tspan x="85.15" y="13.2">ч</tspan><tspan class="cls-5" x="90.88" y="13.2">а</tspan><tspan class="cls-8" x="96.76" y="13.2">т</tspan><tspan class="cls-7" x="101.67" y="13.2">е</tspan><tspan x="107.42" y="13.2">ля)</tspan></text><polyline class="cls-23" points="157.57 694.71 85.62 694.71 85.62 726.64"/><line class="cls-18" x1="206.77" y1="675.42" x2="206.77" y2="662.77"/><line class="cls-18" x1="206.77" y1="640.39" x2="206.77" y2="627.74"/><polyline class="cls-18" points="255.96 694.71 311.56 694.71 311.56 726.64"/><line class="cls-23" x1="190.06" y1="751.7" x2="223.1" y2="751.7"/></svg>