<svg id="Слой_1" data-name="Слой 1" xmlns="http://www.w3.org/2000/svg" xmlns:xlink="http://www.w3.org/1999/xlink" viewBox="0 0 595.28 389.23"><defs><style>.cls-1,.cls-9{stroke:#201600;}.cls-1,.cls-15,.cls-2,.cls-3,.cls-9{stroke-miterlimit:10;}.cls-1{fill:url(#Угасающее_небо);}.cls-15,.cls-2,.cls-3,.cls-9{fill:none;}.cls-2{stroke:#d24a43;}.cls-3{stroke:#52ac62;}.cls-4{font-size:11px;fill:#201600;font-family:ArialMT, Arial;}.cls-5{letter-spacing:-0.08em;}.cls-6{letter-spacing:-0.02em;}.cls-7{letter-spacing:0.01em;}.cls-8{letter-spacing:-0.01em;}.cls-10{letter-spacing:-0.03em;}.cls-11{letter-spacing:-0.07em;}.cls-12{fill:#52ac62;}.cls-13{letter-spacing:0.02em;}.cls-14{letter-spacing:-0.06em;}.cls-15{stroke:#3eb5f1;}.cls-16{letter-spacing:-0.11em;}</style><linearGradient id="Угасающее_небо" x1="273.46" y1="14.84" x2="273.46" y2="39.35" gradientUnits="userSpaceOnUse"><stop offset="0" stop-color="#6086c4"/><stop offset="1" stop-color="#6086c4" stop-opacity="0"/></linearGradient></defs><title>АТ</title><rect class="cls-1" x="187.14" y="14.84" width="172.65" height="24.52"/><rect class="cls-2" x="481.16" y="185.81" width="93.72" height="46.9"/><polygon class="cls-3" points="258.92 242.19 160.41 242.19 174.96 201.94 273.46 201.94 258.92 242.19"/><text class="cls-4" transform="translate(212.69 29.9)">Неисправности <tspan class="cls-5" x="81.67" y="0">А</tspan><tspan x="88.15" y="0">Т (ШР)</tspan></text><text class="cls-4" transform="translate(232.2 103.25)"><tspan class="cls-5">А</tspan><tspan x="6.48" y="0">Т </tspan><tspan class="cls-6" x="16.25" y="0">о</tspan><tspan x="22.13" y="0">т</tspan><tspan class="cls-7" x="27.17" y="0">к</tspan><tspan x="32.1" y="0">л</tspan><tspan class="cls-6" x="38.52" y="0">ю</tspan><tspan x="46.53" y="0">чился?</tspan></text><text class="cls-4" transform="translate(487.62 196.51)">В<tspan class="cls-7" x="7.34" y="0">к</tspan><tspan x="12.27" y="0">л</tspan><tspan class="cls-6" x="18.69" y="0">ю</tspan><tspan x="26.7" y="0">ч</tspan><tspan class="cls-6" x="32.43" y="0">а</tspan><tspan x="38.31" y="0">ть после</tspan><tspan class="cls-6" x="6.51" y="11">о</tspan><tspan x="12.38" y="11">тбора проб, </tspan><tspan class="cls-8" x="11.86" y="22">у</tspan><tspan x="17.24" y="22">странения</tspan><tspan x="-0.25" y="33">неисправнос</tspan><tspan class="cls-8" x="65.32" y="33">т</tspan><tspan x="70.23" y="33">ей</tspan></text><rect class="cls-2" x="177.9" y="258.61" width="78.06" height="36.68"/><rect class="cls-9" x="291.97" y="244.81" width="78.06" height="22.39"/><text class="cls-4" transform="translate(188.39 269.31)"><tspan class="cls-10">Р</tspan><tspan class="cls-8" x="6.97" y="0">а</tspan><tspan x="12.97" y="0">зг</tspan><tspan class="cls-8" x="22.02" y="0">р</tspan><tspan x="28.02" y="0">узить,</tspan><tspan class="cls-6" x="1.28" y="11">о</tspan><tspan x="7.15" y="11">т</tspan><tspan class="cls-7" x="12.19" y="11">к</tspan><tspan x="17.13" y="11">л</tspan><tspan class="cls-6" x="23.54" y="11">ю</tspan><tspan x="31.55" y="11">чить,</tspan><tspan class="cls-6" x="-6.48" y="22">о</tspan><tspan x="-0.6" y="22">тбор, анализ</tspan></text><rect class="cls-2" x="24.81" y="256" width="78.06" height="36.68"/><text class="cls-4" transform="translate(38.55 272.7)"><tspan class="cls-11">У</tspan><tspan x="6.25" y="0">странить</tspan><tspan x="-4" y="11">на</tspan><tspan class="cls-8" x="8.19" y="11">р</tspan><tspan x="14.18" y="11">ушение.</tspan></text><rect class="cls-2" x="406.03" y="240.27" width="168.85" height="36.68"/><text class="cls-4" transform="translate(409.79 250.97)">Внешний осм<tspan class="cls-6" x="68.95" y="0">о</tspan><tspan x="74.83" y="0">тр </tspan><tspan class="cls-5" x="89.04" y="0">А</tspan><tspan x="95.52" y="0">Т и </tspan><tspan x="0" y="11">об</tspan><tspan class="cls-8" x="12.42" y="11">р</tspan><tspan class="cls-10" x="18.41" y="11">у</tspan><tspan x="23.55" y="11">до</tspan><tspan class="cls-8" x="36.08" y="11">в</tspan><tspan x="41.8" y="11">ания в </tspan><tspan class="cls-8" x="78.05" y="11">з</tspan><tspan x="82.97" y="11">оне защиты.</tspan><tspan class="cls-12"><tspan class="cls-8" x="0" y="22">Е</tspan><tspan x="7.21" y="22">сли </tspan><tspan class="cls-8" x="28.33" y="22">б</tspan><tspan class="cls-6" x="34.51" y="22">е</tspan><tspan x="40.39" y="22">з зам</tspan><tspan class="cls-10" x="67.21" y="22">е</tspan><tspan x="72.96" y="22">чаний - в</tspan><tspan class="cls-7" x="118.79" y="22">к</tspan><tspan x="123.73" y="22">л</tspan><tspan class="cls-6" x="130.15" y="22">ю</tspan><tspan x="138.16" y="22">чай.</tspan></tspan></text><text class="cls-4" transform="translate(295.02 260.51)"><tspan class="cls-10">Р</tspan><tspan x="6.97" y="0">аб</tspan><tspan class="cls-6" x="19.39" y="0">о</tspan><tspan class="cls-8" x="25.27" y="0">т</tspan><tspan x="30.18" y="0">а Д</tspan><tspan class="cls-8" x="46.8" y="0">З</tspan><tspan x="53.32" y="0">ОШ</tspan></text><rect class="cls-9" x="24.81" y="203.51" width="78.06" height="22.39"/><text class="cls-4" transform="translate(35.88 219.21)">От<tspan class="cls-13" x="13.59" y="0">к</tspan><tspan class="cls-8" x="18.65" y="0">а</tspan><tspan x="24.64" y="0">з РПН</tspan></text><text class="cls-4" transform="translate(190.9 214.7)"><tspan class="cls-14">Т</tspan><tspan x="6.1" y="0">р</tspan><tspan class="cls-8" x="12.22" y="0">е</tspan><tspan class="cls-6" x="18.21" y="0">б</tspan><tspan class="cls-8" x="24.27" y="0">у</tspan><tspan class="cls-10" x="29.65" y="0">е</tspan><tspan class="cls-8" x="35.4" y="0">т</tspan><tspan x="40.32" y="0">ся</tspan><tspan x="5.12" y="11">ср</tspan><tspan class="cls-6" x="16.74" y="11">о</tspan><tspan x="22.61" y="11">чное</tspan><tspan class="cls-6" x="-7.4" y="22">о</tspan><tspan x="-1.53" y="22">т</tspan><tspan class="cls-7" x="3.51" y="22">к</tspan><tspan x="8.45" y="22">л</tspan><tspan class="cls-6" x="14.86" y="22">ю</tspan><tspan x="22.87" y="22">чение?</tspan></text><polygon class="cls-9" points="273.46 132.97 206.36 99.42 273.46 65.86 340.57 99.42 273.46 132.97"/><text class="cls-4" transform="translate(376.85 156.49)">Защиты <tspan class="cls-6" x="43.96" y="0">о</tspan><tspan x="49.83" y="0">т</tspan><tspan x="-3.34" y="11">внутренних </tspan><tspan x="-9.77" y="22">повр</tspan><tspan class="cls-8" x="14.27" y="22">е</tspan><tspan x="20.26" y="22">ждений?</tspan></text><polygon class="cls-9" points="404.29 200.08 337.18 166.52 404.29 132.97 471.39 166.52 404.29 200.08"/><text class="cls-4" transform="translate(121.1 156.49)"><tspan class="cls-10">Р</tspan><tspan x="6.97" y="0">аб</tspan><tspan class="cls-6" x="19.39" y="0">о</tspan><tspan class="cls-8" x="25.27" y="0">т</tspan><tspan x="30.18" y="0">а</tspan><tspan x="-5.17" y="11">защит на</tspan><tspan x="-2.04" y="22">сигнал?</tspan></text><polygon class="cls-9" points="139.25 200.08 72.14 166.52 139.25 132.97 206.36 166.52 139.25 200.08"/><polyline class="cls-2" points="340.57 99.42 404.29 99.42 404.29 132.97"/><polyline class="cls-2" points="471.39 166.52 528.02 166.52 528.02 185.81"/><polyline class="cls-15" points="206.36 99.42 139.25 99.42 139.25 132.97"/><polyline class="cls-2" points="206.36 166.52 216.79 166.52 216.94 201.94"/><line class="cls-2" x1="216.79" y1="258.61" x2="216.79" y2="242.19"/><polyline class="cls-15" points="337.18 166.52 331 166.52 331 244.81"/><line class="cls-2" x1="370.03" y1="256" x2="406.03" y2="256"/><rect class="cls-9" x="278.94" y="292.23" width="104.13" height="26.8"/><rect class="cls-2" x="406.03" y="289.9" width="168.85" height="36.68"/><text class="cls-4" transform="translate(409.79 300.6)">Внешний осм<tspan class="cls-6" x="68.95" y="0">о</tspan><tspan x="74.83" y="0">тр </tspan><tspan class="cls-5" x="89.04" y="0">А</tspan><tspan x="95.52" y="0">Т и </tspan><tspan x="0" y="11">анализ раб</tspan><tspan class="cls-6" x="57.51" y="11">о</tspan><tspan x="63.38" y="11">ты защи</tspan><tspan class="cls-16" x="105.74" y="11">т</tspan><tspan x="109.56" y="11">.</tspan><tspan class="cls-12"><tspan class="cls-8" x="0" y="22">Е</tspan><tspan x="7.21" y="22">сли </tspan><tspan class="cls-8" x="28.33" y="22">б</tspan><tspan class="cls-6" x="34.51" y="22">е</tspan><tspan x="40.39" y="22">з зам</tspan><tspan class="cls-10" x="67.21" y="22">е</tspan><tspan x="72.96" y="22">чаний - в</tspan><tspan class="cls-7" x="118.79" y="22">к</tspan><tspan x="123.73" y="22">л</tspan><tspan class="cls-6" x="130.15" y="22">ю</tspan><tspan x="138.16" y="22">чай.</tspan></tspan></text><text class="cls-4" transform="translate(288.05 303.14)"><tspan class="cls-10">Р</tspan><tspan x="6.97" y="0">аб</tspan><tspan class="cls-6" x="19.39" y="0">о</tspan><tspan class="cls-8" x="25.27" y="0">т</tspan><tspan x="30.18" y="0">али </tspan><tspan class="cls-8" x="51.92" y="0">т</tspan><tspan class="cls-6" x="56.83" y="0">о</tspan><tspan x="62.71" y="0">ль</tspan><tspan class="cls-7" x="74.86" y="0">к</tspan><tspan x="79.79" y="0">о</tspan><tspan x="-5.77" y="11">р</tspan><tspan class="cls-6" x="0.35" y="11">е</tspan><tspan class="cls-8" x="6.23" y="11">з</tspan><tspan x="11.15" y="11">ервные защиты</tspan></text><line class="cls-2" x1="383.06" y1="305.63" x2="406.03" y2="305.63"/><rect class="cls-9" x="278.94" y="341.86" width="104.13" height="26.8"/><rect class="cls-2" x="406.03" y="339.53" width="168.85" height="36.68"/><text class="cls-4" transform="translate(409.78 350.23)">В<tspan class="cls-7" x="7.34" y="0">к</tspan><tspan x="12.27" y="0">л</tspan><tspan class="cls-6" x="18.69" y="0">ю</tspan><tspan x="26.7" y="0">ч</tspan><tspan class="cls-6" x="32.43" y="0">а</tspan><tspan x="38.31" y="0">ть доп</tspan><tspan class="cls-8" x="70.62" y="0">у</tspan><tspan x="76" y="0">с</tspan><tspan class="cls-13" x="81.5" y="0">к</tspan><tspan x="86.56" y="0">а</tspan><tspan class="cls-10" x="92.67" y="0">е</tspan><tspan class="cls-8" x="98.43" y="0">т</tspan><tspan x="103.34" y="0">ся при</tspan><tspan class="cls-6" x="0" y="11">о</tspan><tspan class="cls-8" x="5.88" y="11">т</tspan><tspan x="10.79" y="11">су</tspan><tspan class="cls-8" x="21.79" y="11">т</tspan><tspan x="26.71" y="11">ствии рас</tspan><tspan class="cls-7" x="76.17" y="11">с</tspan><tspan x="81.79" y="11">о</tspan><tspan class="cls-6" x="87.91" y="11">г</tspan><tspan x="91.68" y="11">ла</tspan><tspan class="cls-7" x="104.22" y="11">с</tspan><tspan x="109.84" y="11">о</tspan><tspan class="cls-8" x="115.96" y="11">в</tspan><tspan x="121.68" y="11">ания</tspan><tspan class="cls-7" x="0" y="22">к</tspan><tspan x="4.94" y="22">он</tspan><tspan class="cls-8" x="17.13" y="22">т</tspan><tspan x="22.04" y="22">а</tspan><tspan class="cls-7" x="28.16" y="22">к</tspan><tspan class="cls-8" x="33.1" y="22">т</tspan><tspan x="38.01" y="22">ов </tspan><tspan class="cls-8" x="53.03" y="22">у</tspan><tspan x="58.41" y="22">стройст</tspan><tspan class="cls-8" x="97.86" y="22">в</tspan><tspan x="103.58" y="22">а РПН.</tspan></text><text class="cls-4" transform="translate(282.44 352.77)">При пере<tspan class="cls-7" x="47.53" y="0">к</tspan><tspan x="52.47" y="0">л</tspan><tspan class="cls-6" x="58.89" y="0">ю</tspan><tspan x="66.9" y="0">чении</tspan><tspan x="36.96" y="11">РПН</tspan></text><line class="cls-2" x1="382.55" y1="355.26" x2="405.52" y2="355.26"/><line class="cls-15" x1="331" y1="267.19" x2="331" y2="292.44"/><line class="cls-15" x1="331" y1="319.03" x2="331" y2="341.86"/><polyline class="cls-15" points="72.14 166.52 64.56 166.52 63.84 203.51"/><line class="cls-15" x1="64.56" y1="225.9" x2="63.84" y2="256"/></svg>