<?xml version="1.0" encoding="utf-8"?>
<!-- Generator: Adobe Illustrator 23.0.2, SVG Export Plug-In . SVG Version: 6.00 Build 0)  -->
<svg version="1.1" id="Слой_1" xmlns="http://www.w3.org/2000/svg" xmlns:xlink="http://www.w3.org/1999/xlink" x="0px" y="0px"
	 viewBox="0 0 14.2 16.8" style="enable-background:new 0 0 14.2 16.8;" xml:space="preserve">
<style type="text/css">
	.st0{fill-rule:evenodd;clip-rule:evenodd;fill:#58FF00;}
	.st1{fill-rule:evenodd;clip-rule:evenodd;fill:#FC8300;}
</style>
<g id="Page-1">
	<g id="Artboard-3" transform="translate(-321.000000, -552.000000)">
		<g id="Alien" transform="translate(321.000000, 552.000000)">
			<path id="Fill-94" class="st0" d="M7.1,0C3.2,0,0,3.1,0,7c0,3.7,4.4,9.8,7.1,9.8c2.6,0,7.1-6.1,7.1-9.8C14.2,3.1,11,0,7.1,0
				 M7.1,0.3c3.8,0,6.8,3,6.8,6.7c0,3.5-4.3,9.6-6.8,9.6c-2.5,0-6.8-6.1-6.8-9.6C0.3,3.3,3.3,0.3,7.1,0.3"/>
			<path id="Fill-95" class="st0" d="M9.2,10.8c-0.8,0-1.4-0.2-1.4-0.2c-0.1,0-0.1-0.1-0.1-0.2c0-0.1,0.2-2,1.5-2.8
				c0.5-0.3,1-0.5,1.7-0.5c0.8,0,1.4,0.2,1.4,0.2c0.1,0,0.1,0.1,0.1,0.2c0,0.1-0.2,2-1.5,2.8C10.4,10.6,9.8,10.8,9.2,10.8"/>
			<path id="Fill-96" class="st0" d="M3.3,10.3C2,9.5,1.8,7.6,1.8,7.5c0-0.1,0-0.2,0.1-0.2c0,0,0.6-0.2,1.4-0.2
				c0.7,0,1.3,0.2,1.7,0.5c1.3,0.8,1.5,2.7,1.5,2.8c0,0.1,0,0.2-0.1,0.2c0,0-0.6,0.2-1.4,0.2C4.3,10.8,3.8,10.6,3.3,10.3"/>
			<path id="Fill-115" class="st1" d="M8.3,13.4H5.9c-0.1,0-0.2-0.1-0.2-0.1s0.1-0.1,0.2-0.1h2.4c0.1,0,0.2,0.1,0.2,0.1
				S8.4,13.4,8.3,13.4"/>
		</g>
	</g>
</g>
</svg>
