<?xml version="1.0" encoding="utf-8"?>
<!-- Generator: Adobe Illustrator 23.0.2, SVG Export Plug-In . SVG Version: 6.00 Build 0)  -->
<svg version="1.1" id="Слой_1" xmlns="http://www.w3.org/2000/svg" xmlns:xlink="http://www.w3.org/1999/xlink" x="0px" y="0px"
	 viewBox="0 0 64 60" style="enable-background:new 0 0 64 60;" xml:space="preserve">
<style type="text/css">
	.st0{fill-rule:evenodd;clip-rule:evenodd;fill:#FFDA00;}
	.st1{fill-rule:evenodd;clip-rule:evenodd;fill:#00FF30;}
</style>
<g id="Page-1">
	<g id="Artboard-3" transform="translate(-420.000000, -658.000000)">
		<g id="Capsule-2" transform="translate(420.000000, 658.000000)">
			<path id="Fill-308" class="st0" d="M32,18c-9,0-14-2.4-14.2-2.6l0.4-0.9c0,0,5,2.4,13.8,2.4c8.7,0,13.7-2.4,13.8-2.4l0.4,0.9
				C46,15.6,40.9,18,32,18"/>
			<path id="Fill-313" class="st0" d="M13.8,21.3l1.7,1c0.2,0.1,0.4,0.3,0.5,0.6c0.1,0.3,0,0.5-0.1,0.8l-8,13.9
				C7.7,37.8,7.4,38,7,38c-0.2,0-0.3,0-0.5-0.1l-1.7-1l-0.5,0.9l1.7,1C6.3,38.9,6.7,39,7,39c0.7,0,1.4-0.4,1.7-1l8-13.9
				c0.6-1,0.2-2.2-0.7-2.7l-1.7-1L13.8,21.3z"/>
			<path id="Fill-314" class="st0" d="M49.7,20.4l-1.7,1c-1,0.6-1.3,1.8-0.7,2.7l8,13.9c0.4,0.6,1,1,1.7,1c0.3,0,0.7-0.1,1-0.3
				l1.7-1l-0.5-0.9l-1.7,1C57.3,38,57.2,38,57,38c-0.4,0-0.7-0.2-0.9-0.5l-8-13.9C48,23.4,48,23.1,48,22.9c0.1-0.3,0.2-0.5,0.5-0.6
				l1.7-1L49.7,20.4z"/>
			<path id="Fill-315" class="st0" d="M63,46v1.8c0,0.9-0.6,1.6-1.4,1.8c-0.5,0.1-1,0.2-1.6,0.4c-4,1-11.5,3-28,3
				c-16.6,0-24-1.9-28-3c-0.6-0.2-1.1-0.3-1.6-0.4C1.6,49.4,1,48.7,1,47.8V46l-1-1v2.8c0,1.3,0.9,2.5,2.2,2.8C6,51.5,12.9,54,32,54
				c18.9,0,26-2.5,29.8-3.4c1.3-0.3,2.2-1.4,2.2-2.8V45"/>
			<path id="Fill-305" class="st1" d="M43.4,11l19.4,33.6c0.3,0.6,0.1,1.3-0.6,1.5c-3.7,1.1-13.6,3-30.3,3s-26.6-1.9-30.3-3
				C1,45.9,0.7,45.2,1,44.6L20.6,11L20,10L0.3,44c-0.6,1.1-0.1,2.5,1.1,2.9C5.2,48.1,15.1,50,32,50c16.8,0,26.7-1.8,30.6-3
				c1.2-0.4,1.8-1.8,1.1-2.9L44,10"/>
			<path id="Fill-306" class="st1" d="M60.4,50.4l2.4,4.2c0.3,0.6,0.1,1.3-0.6,1.5c-3.7,1.1-13.6,3-30.3,3s-26.6-1.9-30.3-3
				C1,55.9,0.7,55.2,1,54.6l2.4-4.1L2.6,50l-2.3,4c-0.6,1.1-0.1,2.5,1.1,2.9C5.2,58.1,15.1,60,32,60c16.8,0,26.7-1.8,30.6-3
				c1.2-0.4,1.8-1.8,1.1-2.9l-2.3-3.9L60.4,50.4z"/>
			<path id="Fill-307" class="st1" d="M32,0L32,0c-6.2,0-12,3.9-12,10v1c0,0,3.2,2,12,2c8.7,0,12-2,12-2v-1C44,4,38.6,0,32,0 M32,1
				c6.4,0,11,3.8,11,9v0.4c-1.2,0.5-4.5,1.6-11,1.6s-9.8-1.1-11-1.6V10c0-3.3,1.8-5.3,3.3-6.5C26.3,1.9,29.1,1,32,1"/>
			<path id="Fill-310" class="st1" d="M38,29c0.6,0,1,0.4,1,1v19h1V30c0-1.1-0.9-2-2-2H26c-1.1,0-2,0.9-2,2v19h1V30c0-0.6,0.4-1,1-1
				H38"/>
			<path id="Fill-311" class="st1" d="M32,31c-2.8,0-5,2.2-5,5s2.2,5,5,5s5-2.2,5-5S34.8,31,32,31 M32,32c2.2,0,4,1.8,4,4
				s-1.8,4-4,4s-4-1.8-4-4S29.8,32,32,32"/>
			<path id="Fill-312" class="st0" d="M34.5,36c-0.3,0-0.5-0.2-0.5-0.5c0-0.8-0.7-1.5-1.5-1.5c-0.3,0-0.5-0.2-0.5-0.5
				s0.2-0.5,0.5-0.5c1.4,0,2.5,1.1,2.5,2.5C35,35.8,34.8,36,34.5,36"/>
		</g>
	</g>
</g>
</svg>
