<?xml version="1.0" encoding="utf-8"?>
<!-- Generator: Adobe Illustrator 23.0.2, SVG Export Plug-In . SVG Version: 6.00 Build 0)  -->
<svg version="1.1" id="Слой_1" xmlns="http://www.w3.org/2000/svg" xmlns:xlink="http://www.w3.org/1999/xlink" x="0px" y="0px"
	 viewBox="0 0 64 46" style="enable-background:new 0 0 64 46;" xml:space="preserve">
<style type="text/css">
	.st0{fill-rule:evenodd;clip-rule:evenodd;fill:#F2B430;}
	.st1{fill-rule:evenodd;clip-rule:evenodd;fill:#58FF00;}
</style>
<g id="Page-1">
	<g id="Artboard-3" transform="translate(-628.000000, -665.000000)">
		<g id="Constellation" transform="translate(628.000000, 665.000000)">
			<path id="Fill-318" class="st0" d="M31,31c-1.7,0-3,1.3-3,3s1.3,3,3,3c1.7,0,3-1.3,3-3S32.7,31,31,31 M31,32c1.1,0,2,0.9,2,2
				s-0.9,2-2,2s-2-0.9-2-2S29.9,32,31,32"/>
			<path id="Fill-319" class="st0" d="M56,40c-1.7,0-3,1.3-3,3s1.3,3,3,3s3-1.3,3-3S57.7,40,56,40 M56,41c1.1,0,2,0.9,2,2
				s-0.9,2-2,2s-2-0.9-2-2S54.9,41,56,41"/>
			<path id="Fill-320" class="st0" d="M40,12c-1.7,0-3,1.3-3,3s1.3,3,3,3s3-1.3,3-3S41.7,12,40,12 M40,13c1.1,0,2,0.9,2,2
				s-0.9,2-2,2s-2-0.9-2-2S38.9,13,40,13"/>
			<path id="Fill-321" class="st0" d="M2.5,1C1.1,1,0,2.1,0,3.5S1.1,6,2.5,6S5,4.9,5,3.5S3.9,1,2.5,1 M2.5,2C3.3,2,4,2.7,4,3.5
				S3.3,5,2.5,5S1,4.3,1,3.5S1.7,2,2.5,2"/>
			<path id="Fill-322" class="st0" d="M60,20c-2.2,0-4,1.8-4,4s1.8,4,4,4s4-1.8,4-4S62.2,20,60,20 M60,21c1.7,0,3,1.3,3,3
				s-1.3,3-3,3s-3-1.3-3-3S58.3,21,60,21"/>
			<path id="Fill-323" class="st0" d="M28.5,0C26.6,0,25,1.6,25,3.5S26.6,7,28.5,7S32,5.4,32,3.5S30.4,0,28.5,0 M28.5,1
				C29.9,1,31,2.1,31,3.5S29.9,6,28.5,6S26,4.9,26,3.5S27.1,1,28.5,1"/>
			<path id="Fill-364" class="st1" d="M37,12.5c-0.1,0-0.3,0-0.4-0.1l-5-5c-0.2-0.2-0.2-0.5,0-0.7c0.2-0.2,0.5-0.2,0.7,0l5,5
				c0.2,0.2,0.2,0.5,0,0.7C37.3,12.5,37.1,12.5,37,12.5"/>
			<path id="Fill-365" class="st1" d="M33,30.5c-0.1,0-0.1,0-0.2,0c-0.3-0.1-0.4-0.4-0.2-0.7l5-11c0.1-0.3,0.4-0.4,0.7-0.2
				c0.3,0.1,0.4,0.4,0.2,0.7l-5,11C33.4,30.4,33.2,30.5,33,30.5"/>
			<path id="Fill-366" class="st1" d="M55,22.5c-0.1,0-0.1,0-0.2,0l-12-4c-0.3-0.1-0.4-0.4-0.3-0.6c0.1-0.3,0.4-0.4,0.6-0.3l12,4
				c0.3,0.1,0.4,0.4,0.3,0.6C55.4,22.4,55.2,22.5,55,22.5"/>
			<path id="Fill-367" class="st1" d="M57,39.5C57,39.5,56.9,39.5,57,39.5c-0.4-0.1-0.5-0.3-0.5-0.6l2-10c0.1-0.3,0.3-0.4,0.6-0.4
				c0.3,0.1,0.4,0.3,0.4,0.6l-2,10C57.4,39.3,57.2,39.5,57,39.5"/>
			<path id="Fill-368" class="st1" d="M52,42.5c-0.1,0-0.1,0-0.2,0l-17-6c-0.3-0.1-0.4-0.4-0.3-0.6c0.1-0.3,0.4-0.4,0.6-0.3l17,6
				c0.3,0.1,0.4,0.4,0.3,0.6C52.4,42.4,52.2,42.5,52,42.5"/>
			<path id="Fill-369" class="st1" d="M23.5,4h-17C6.2,4,6,3.8,6,3.5S6.2,3,6.5,3h17C23.8,3,24,3.2,24,3.5S23.8,4,23.5,4"/>
		</g>
	</g>
</g>
</svg>
