<?xml version="1.0" encoding="utf-8"?>
<!-- Generator: Adobe Illustrator 23.0.2, SVG Export Plug-In . SVG Version: 6.00 Build 0)  -->
<svg version="1.1" id="Слой_1" xmlns="http://www.w3.org/2000/svg" xmlns:xlink="http://www.w3.org/1999/xlink" x="0px" y="0px"
	 viewBox="0 0 64 64" style="enable-background:new 0 0 64 64;" xml:space="preserve">
<style type="text/css">
	.st0{fill-rule:evenodd;clip-rule:evenodd;fill:#FFDA00;}
	.st1{fill-rule:evenodd;clip-rule:evenodd;fill:#00FF30;}
</style>
<g id="Page-1">
	<g id="Artboard-3" transform="translate(-108.000000, -344.000000)">
		<g id="Helmet" transform="translate(108.000000, 344.000000)">
			<path id="Fill-106" class="st0" d="M11.5,37.5c-0.3,0-0.5-0.2-0.5-0.5v-5c0-4.6,3.9-8.5,9.4-9.5c0.3,0,0.5,0.1,0.6,0.4
				c0,0.3-0.1,0.5-0.4,0.6C15.5,24.4,12,27.9,12,32v5C12,37.3,11.8,37.5,11.5,37.5"/>
			<path id="Fill-110" class="st0" d="M60,34L60,34v8l0,0c2.2,0,4-1.8,4-4S62.2,34,60,34 M61,35.2c1.2,0.4,2,1.5,2,2.8
				s-0.8,2.4-2,2.8V35.2"/>
			<path id="Fill-112" class="st0" d="M4,34c-2.2,0-4,1.8-4,4s1.8,4,4,4V34z M3,35.2v5.7c-1.2-0.4-2-1.5-2-2.8S1.8,35.6,3,35.2
				L3,35.2z"/>
			<path id="Fill-129" class="st1" d="M54,51.5v9.7c-2.2,0.5-9.3,1.8-22,1.8c-12.8,0-19.9-1.3-22-1.8v-9.7L9,51v11c0,0,6.9,2,23,2
				c15.9,0,23-2,23-2V51"/>
			<path id="Fill-107" class="st0" d="M19,19.5c-0.3,0-0.5-0.2-0.5-0.5c0-2.6-2.2-7.2-5.7-8.5c-0.3-0.1-0.4-0.4-0.3-0.6
				c0.1-0.3,0.4-0.4,0.6-0.3c3.9,1.5,6.3,6.5,6.3,9.5C19.5,19.3,19.3,19.5,19,19.5"/>
			<path id="Fill-108" class="st0" d="M45,19.5c-0.3,0-0.5-0.2-0.5-0.5c0-3,2.4-8,6.3-9.5c0.3-0.1,0.5,0,0.6,0.3
				c0.1,0.3,0,0.5-0.3,0.6c-3.5,1.3-5.7,5.9-5.7,8.5C45.5,19.3,45.3,19.5,45,19.5"/>
			<path id="Fill-104" class="st1" d="M32,0L32,0C16.6,0,7,12.6,7,28v22c0,0,4,6,25,6c20.9,0,25-6,25-6V28C57,12.6,47.4,0,32,0
				 M32,1c7.1,0,13.1,2.7,17.5,7.9C53.7,13.8,56,20.6,56,28v21.6c-1,1-6.3,5.4-24,5.4c-17.8,0-23.1-4.4-24-5.4V28
				c0-7.4,2.3-14.2,6.5-19.1C18.9,3.7,24.9,1,32,1"/>
			<path id="Fill-105" class="st1" d="M32,17C10.1,17,7,27,7,27v17c0,0,8.1,4,25,4c16.7,0,25-4,25-4V27C57,27,53.8,17,32,17 M32,18
				c19.3,0,23.5,8.1,24,9.2v16.1C53.9,44.2,45.8,47,32,47c-14,0-21.9-2.8-24-3.7V27.2C8.5,26.1,12.5,18,32,18"/>
			<path id="Fill-109" class="st1" d="M59,29h-3v18h3c1.1,0,2-0.9,2-2V31C61,29.9,60.1,29,59,29 M59,30c0.6,0,1,0.4,1,1v14
				c0,0.6-0.4,1-1,1h-2V30H59"/>
			<path id="Fill-111" class="st1" d="M8,29H5c-1.1,0-2,0.9-2,2v14c0,1.1,0.9,2,2,2h3V29z M7,30v16H5c-0.6,0-1-0.4-1-1V31
				c0-0.6,0.4-1,1-1H7L7,30z"/>
			<path id="Fill-113" class="st0" d="M58,29h1V14h-1V29z"/>
			<path id="Fill-114" class="st0" d="M60,13.5c0,0.8-0.7,1.5-1.5,1.5S57,14.3,57,13.5s0.7-1.5,1.5-1.5S60,12.7,60,13.5"/>
		</g>
	</g>
</g>
</svg>
