<?xml version="1.0" encoding="utf-8"?>
<!-- Generator: Adobe Illustrator 23.0.2, SVG Export Plug-In . SVG Version: 6.00 Build 0)  -->
<svg version="1.1" id="Слой_1" xmlns="http://www.w3.org/2000/svg" xmlns:xlink="http://www.w3.org/1999/xlink" x="0px" y="0px"
	 viewBox="0 0 64 64" style="enable-background:new 0 0 64 64;" xml:space="preserve">
<style type="text/css">
	.st0{fill-rule:evenodd;clip-rule:evenodd;fill:#FFDA00;}
	.st1{fill-rule:evenodd;clip-rule:evenodd;fill:#00FF30;}
</style>
<g id="Page-1">
	<g id="Artboard-3" transform="translate(-316.000000, -656.000000)">
		<g id="Moon-Lander" transform="translate(316.000000, 656.000000)">
			<path id="Fill-262" class="st0" d="M13,49h38v-6H13V49z M14,48h36v-4H14V48z"/>
			<path id="Fill-263" class="st1" d="M10.4,25.5L21,44h2l0.1-1h-1.6l-10-17.5L10.4,25.5z"/>
			<path id="Fill-264" class="st1" d="M11.6,20.4L21.6,3h7l0.1-1H21L10.5,20.4L11.6,20.4z"/>
			<path id="Fill-265" class="st1" d="M53.5,20.4L43,2h-7.7l0.1,1h7l10,17.5L53.5,20.4z"/>
			<path id="Fill-266" class="st1" d="M52.4,25.5L42.4,43h-1.6l0.1,1h2l10.6-18.5L52.4,25.5z"/>
			<path id="Fill-267" class="st0" d="M35.7,5.4l0.1,1.1C43.4,8.2,49,15,49,23c0,6.4-3.6,12-8.8,14.9l0.1,1.1c5.8-3,9.7-9,9.7-16
				C50,14.3,43.9,7.1,35.7,5.4"/>
			<path id="Fill-268" class="st0" d="M23.8,37.9C18.6,35,15,29.4,15,23c0-8,5.6-14.8,13.1-16.5l0.1-1.1C20.1,7.1,14,14.3,14,23
				c0,6.9,3.9,13,9.7,16L23.8,37.9z"/>
			<path id="Fill-269" class="st1" d="M35,0h-6l-6,44h18L35,0z M34.1,1l5.7,42H24.1l5.7-42H34.1z"/>
			<path id="Fill-270" class="st1" d="M9,62H1c-0.6,0-1,0.4-1,1l0,0c0,0.6,0.4,1,1,1h8c0.6,0,1-0.4,1-1l0,0C10,62.4,9.6,62,9,62"/>
			<path id="Fill-271" class="st1" d="M63,62h-8c-0.6,0-1,0.4-1,1l0,0c0,0.6,0.4,1,1,1h8c0.6,0,1-0.4,1-1l0,0C64,62.4,63.6,62,63,62
				"/>
			<path id="Fill-272" class="st1" d="M36,62h-8c-0.6,0-1,0.4-1,1l0,0c0,0.6,0.4,1,1,1h8c0.6,0,1-0.4,1-1l0,0C37,62.4,36.6,62,36,62
				"/>
			<path id="Fill-274" class="st1" d="M31,62h2V52h-2V62z"/>
			<path id="Fill-275" class="st1" d="M58,62h2V52h-2V62z"/>
			<path id="Fill-276" class="st1" d="M4,62h2V52H4V62z"/>
			<path id="Fill-277" class="st0" d="M18,48h1v-4h-1V48z"/>
			<path id="Fill-278" class="st0" d="M45,48h1v-4h-1V48z"/>
			<path id="Fill-279" class="st1" d="M30,62h4v-1h-4V62z"/>
			<path id="Fill-280" class="st1" d="M3,62h4v-1H3V62z"/>
			<path id="Fill-281" class="st1" d="M57,62h4v-1h-4V62z"/>
			<path id="Fill-282" class="st1" d="M14,44h10v-2H14V44z"/>
			<path id="Fill-283" class="st1" d="M10,3h12V2H10V3z"/>
			<path id="Fill-284" class="st1" d="M40,44h10v-2H40V44z"/>
			<path id="Fill-285" class="st1" d="M5.4,53.4L4,52l10-10l1.4,1.4L5.4,53.4z"/>
			<path id="Fill-286" class="st1" d="M58.6,53.4L60,52L50,42l-1.4,1.4L58.6,53.4z"/>
			<path id="Fill-289" class="st1" d="M52,24L52,24c-0.5,0-1-0.5-1-1s0.5-1,1-1s1,0.5,1,1S52.5,24,52,24"/>
			<path id="Fill-273" class="st0" d="M43,48H21l2,5h18L43,48z M41.5,49l-1.2,3H23.7l-1.2-3H41.5z"/>
			<path id="Fill-290" class="st1" d="M35,31h-6c-1.1,0-2,0.9-2,2v6c0,1.1,0.9,2,2,2h6c1.1,0,2-0.9,2-2v-6C37,31.9,36.1,31,35,31
				 M35,32c0.6,0,1,0.4,1,1v6c0,0.6-0.4,1-1,1h-6c-0.6,0-1-0.4-1-1v-6c0-0.6,0.4-1,1-1H35"/>
			<path id="Fill-291" class="st1" d="M31,34c-1.1,0-2,0.9-2,2s0.9,2,2,2s2-0.9,2-2S32.1,34,31,34 M31,35c0.6,0,1,0.4,1,1
				s-0.4,1-1,1s-1-0.4-1-1S30.4,35,31,35"/>
			<path id="Fill-292" class="st1" d="M10,2C7.8,2,6,3.8,6,6s1.8,4,4,4s4-1.8,4-4S12.2,2,10,2 M10,3c1.7,0,3,1.3,3,3s-1.3,3-3,3
				S7,7.7,7,6S8.3,3,10,3"/>
			<path id="Fill-293" class="st0" d="M11,6c0,0.6-0.4,1-1,1S9,6.6,9,6s0.4-1,1-1S11,5.4,11,6"/>
			<path id="Fill-294" class="st1" d="M18.6,7.4l-4.5-4.5l0.7-0.7l4.5,4.5L18.6,7.4z"/>
			<path id="Fill-295" class="st1" d="M56,24h-1c-0.5,0-1-0.5-1-1s0.5-1,1-1h1c0.5,0,1,0.5,1,1S56.5,24,56,24"/>
			<path id="Fill-296" class="st1" d="M9,24H8c-0.6,0-1-0.5-1-1s0.4-1,1-1h1c0.6,0,1,0.5,1,1S9.6,24,9,24"/>
			<path id="Fill-297" class="st1" d="M26.5,22H14v-1h13L26.5,22z"/>
			<path id="Fill-298" class="st1" d="M14,24h12v-1H14V24z"/>
			<path id="Fill-299" class="st1" d="M50,22H37.5L37,21h13V22z"/>
			<path id="Fill-300" class="st1" d="M38,24h12v-1H38V24z"/>
			<path id="Fill-302" class="st0" d="M56.5,11c-0.1,0-0.3,0-0.4-0.1l-3-3c-0.2-0.2-0.2-0.5,0-0.7c0.2-0.2,0.5-0.2,0.7,0l3,3
				c0.2,0.2,0.2,0.5,0,0.7C56.8,11,56.6,11,56.5,11"/>
			<path id="Fill-303" class="st0" d="M58.5,9c-0.1,0-0.3,0-0.4-0.1l-3-3c-0.2-0.2-0.2-0.5,0-0.7c0.2-0.2,0.5-0.2,0.7,0l3,3
				c0.2,0.2,0.2,0.5,0,0.7C58.8,9,58.6,9,58.5,9"/>
			<path id="Fill-304" class="st0" d="M50.3,13l7.4-7.4c0.2-0.2,0.5-0.2,0.7,0c0.2,0.2,0.2,0.5,0,0.7L50.7,14L50.3,13z"/>
			<path id="Fill-301" class="st1" d="M50,9v6l1,1V8h-5l0.5,1H50z"/>
			<path id="Fill-288" class="st0" d="M9,26h6v-6H9V26z M10,25h4v-4h-4V25z"/>
			<path id="Fill-309" class="st0" d="M49,26h6v-6h-6V26z M50,25h4v-4h-4V25z"/>
		</g>
	</g>
</g>
</svg>
