<?xml version="1.0" encoding="utf-8"?>
<!-- Generator: Adobe Illustrator 23.0.2, SVG Export Plug-In . SVG Version: 6.00 Build 0)  -->
<svg version="1.1" id="Слой_1" xmlns="http://www.w3.org/2000/svg" xmlns:xlink="http://www.w3.org/1999/xlink" x="0px" y="0px"
	 viewBox="0 0 44 64" style="enable-background:new 0 0 44 64;" xml:space="preserve">
<style type="text/css">
	.st0{fill-rule:evenodd;clip-rule:evenodd;fill:#FFDA00;}
	.st1{fill-rule:evenodd;clip-rule:evenodd;fill:#00FF30;}
</style>
<g id="Page-1">
	<g id="Artboard-3" transform="translate(-431.000000, -448.000000)">
		<g id="Satellite-Dish" transform="translate(431.000000, 448.000000)">
			<path id="Fill-133" class="st0" d="M36.2,16.7c-0.1,0-0.3,0-0.4-0.1c-0.2-0.2-0.2-0.5,0-0.7c1-1,1.6-2.4,1.6-3.9
				s-0.6-2.8-1.6-3.9c-1-1-2.4-1.6-3.9-1.6c-1.5,0-2.9,0.6-3.9,1.6c-0.2,0.2-0.5,0.2-0.7,0c-0.2-0.2-0.2-0.5,0-0.7
				c2.5-2.5,6.7-2.5,9.2,0s2.5,6.7,0,9.2C36.5,16.7,36.4,16.7,36.2,16.7"/>
			<path id="Fill-134" class="st0" d="M39.1,19.6c-0.1,0-0.3,0-0.4-0.1c-0.2-0.2-0.2-0.5,0-0.7c3.7-3.7,3.7-9.7,0-13.4
				C35,1.6,29,1.6,25.3,5.3c-0.2,0.2-0.5,0.2-0.7,0s-0.2-0.5,0-0.7c4.1-4.1,10.8-4.1,14.9,0s4.1,10.8,0,14.9
				C39.3,19.5,39.2,19.6,39.1,19.6"/>
			<path id="Fill-135" class="st1" d="M33,12c0,0.6-0.4,1-1,1c-0.6,0-1-0.4-1-1s0.4-1,1-1C32.6,11,33,11.4,33,12"/>
			<path id="Fill-136" class="st1" d="M29.9,14.9l-0.7-0.7l2.5-2.5l0.7,0.7L29.9,14.9z"/>
			<path id="Fill-137" class="st0" d="M39,29.5c-0.1,0-0.3,0-0.4-0.1l-24-24c-0.2-0.2-0.2-0.5,0-0.7s0.5-0.2,0.7,0l24,24
				c0.2,0.2,0.2,0.5,0,0.7C39.3,29.5,39.1,29.5,39,29.5"/>
			<path id="Fill-138" class="st1" d="M16,23c-1.9,0-3.7,1-4.6,2.9L2,55h28l-9.4-29.1C19.7,24,17.9,23,16,23 M16,24
				c1.3,0,2.9,0.6,3.6,2.3l9,27.7H3.4l9-27.7C13.1,24.6,14.7,24,16,24"/>
			<path id="Fill-139" class="st0" d="M16,26c-1.7,0-3,1.3-3,3s1.3,3,3,3s3-1.3,3-3S17.7,26,16,26 M16,27c1.1,0,2,0.9,2,2
				s-0.9,2-2,2s-2-0.9-2-2S14.9,27,16,27"/>
			<path id="Fill-141" class="st1" d="M2,64h28v-6H2V64z M3,63h26v-4H3V63z"/>
			<path id="Fill-140" class="st0" d="M0,59h32v-5H0V59z M1,58h30v-3H1V58z"/>
			<path id="Fill-142" class="st1" d="M42.6,28.1c-3.5,3.1-7.9,4.9-12.7,4.9c-2.8,0-5.6-0.6-8.1-1.8l0.3,1.2
				c2.5,1.1,5.2,1.6,7.8,1.6c5.1,0,10.2-1.9,14.1-5.8L15.8,0c-6.7,6.7-7.6,16.8-2.9,24.5l0.9-0.5c-4.3-7-3.7-16.3,2-22.6L42.6,28.1z
				"/>
			<path id="Fill-144" class="st0" d="M7.2,51.4l-0.5-0.9l15-8l0.5,0.9L7.2,51.4z"/>
			<path id="Fill-145" class="st0" d="M24.8,51.4l-15-8l0.5-0.9l15,8L24.8,51.4z"/>
			<path id="Fill-146" class="st0" d="M21.7,43.4l-10-8l0.6-0.8l10,8L21.7,43.4z"/>
			<path id="Fill-147" class="st0" d="M10.3,43.4l-0.6-0.8l10-8l0.6,0.8L10.3,43.4z"/>
			<path id="Fill-143" class="st1" d="M20,34h-8L6,52h20L20,34z M19.3,35l5.3,16H7.4l5.3-16H19.3z"/>
		</g>
	</g>
</g>
</svg>
