<?xml version="1.0" encoding="utf-8"?>
<!-- Generator: Adobe Illustrator 23.0.2, SVG Export Plug-In . SVG Version: 6.00 Build 0)  -->
<svg version="1.1" id="Слой_1" xmlns="http://www.w3.org/2000/svg" xmlns:xlink="http://www.w3.org/1999/xlink" x="0px" y="0px"
	 viewBox="0 0 64 65.8" style="enable-background:new 0 0 64 65.8;" xml:space="preserve">
<style type="text/css">
	.st0{fill-rule:evenodd;clip-rule:evenodd;fill:#FFDA00;}
	.st1{fill-rule:evenodd;clip-rule:evenodd;fill:#00FF30;}
</style>
<g>
	<g id="Artboard-3" transform="translate(-628.000000, -557.000000)">
		<g id="Astronaut" transform="translate(628.000000, 557.000000)">
			<path id="Fill-449" class="st0" d="M24,50.5c0,2.6-1.8,4.7-4,4.7s-4-2.1-4-4.7s1.8-4.7,4-4.7S24,47.9,24,50.5"/>
			<path id="Fill-446" class="st1" d="M31,65.8h2V43.5h-2V65.8z"/>
			<path id="Fill-450" class="st0" d="M44,45.8h-8c-0.5,0-1,0.5-1,1.2v2.3c0,0.6,0.5,1.2,1,1.2h8c0.5,0,1-0.5,1-1.2V47
				C45,46.3,44.5,45.8,44,45.8L44,45.8z M36,49.3h8V47h-8V49.3z"/>
			<path id="Page-1" class="st1" d="M47,1.2c1.7,0,3,1.6,3,3.5v7h-7l0.8,1.2H51V4.7C51,2.1,49.2,0,47,0H17c-2.2,0-4,2.1-4,4.7v8.2
				h7.2l0.8-1.2h-7v-7c0-1.9,1.3-3.5,3-3.5H47"/>
			<path id="Fill-451" class="st0" d="M63,55.2h-3c-0.5,0-1,0.5-1,1.2v4.7c0,0.6,0.5,1.2,1,1.2h3c0.5,0,1-0.5,1-1.2v-4.7
				C64,55.7,63.5,55.2,63,55.2L63,55.2z M60,61.1h3v-4.7h-3V61.1z"/>
			<path id="Fill-441" class="st1" d="M53,25.8v16.4H11V25.8h2.4v-1.2H10v18.8h44V24.7h-3.6l0,1.2H53z"/>
			<path id="Fill-442" class="st0" d="M52,12.9c1.7,0,3,1.6,3,3.5v8.2h-4.6l-0.1,1.2H56v-9.4c0-2.6-1.8-4.7-4-4.7h-9l0.7,1.2H52
				L52,12.9z M21,11.7h-9c-2.2,0-4,2.1-4,4.7v9.4h5.4l0.1-1.2H9v-8.2c0-1.9,1.3-3.5,3-3.5h8.2L21,11.7z"/>
			<path id="Fill-436" class="st1" d="M32,5.9c-8.8,0-16,8.4-16,18.8s7.2,18.8,16,18.8s16-8.4,16-18.8S40.8,5.9,32,5.9 M32,7
				c8.3,0,15,7.9,15,17.6s-6.7,17.6-15,17.6s-15-7.9-15-17.6S23.7,7,32,7"/>
			<path id="Fill-437" class="st1" d="M32,11.7c-8.8,0-16,2.5-16,12.9s7.2,15.3,16,15.3s16-4.9,16-15.3S40.8,11.7,32,11.7 M32,12.9
				c10.4,0,15,3.6,15,11.7c0,8.8-5.6,14.1-15,14.1s-15-5.3-15-14.1C17,16.5,21.6,12.9,32,12.9"/>
			<path id="Fill-438" class="st1" d="M52,42.3H12c-6.6,0-12,6.3-12,14.1v9.4h64v-9.4C64,48.6,58.6,42.3,52,42.3 M52,43.5
				c6.1,0,11,5.8,11,12.9v8.2H1v-8.2c0-7.1,4.9-12.9,11-12.9H52"/>
			<path id="Fill-439" class="st1" d="M17,20h-2c-1.1,0-2,1.1-2,2.3V27c0,1.3,0.9,2.3,2,2.3h2V20z M16,21.1v7h-1c-0.6,0-1-0.5-1-1.2
				v-4.7c0-0.6,0.4-1.2,1-1.2H16L16,21.1z"/>
			<path id="Fill-440" class="st1" d="M49,20h-2v9.4h2c1.1,0,2-1.1,2-2.3v-4.7C51,21,50.1,20,49,20 M49,21.1c0.6,0,1,0.5,1,1.2V27
				c0,0.6-0.4,1.2-1,1.2h-1v-7H49"/>
			<path id="Fill-444" class="st1" d="M48.5,9.4L48.5,9.4C48.2,9.4,48,9.7,48,10v10.6c0,0.3,0.2,0.6,0.5,0.6s0.5-0.3,0.5-0.6V10
				C49,9.7,48.8,9.4,48.5,9.4"/>
			<path id="Fill-445" class="st0" d="M19.5,24.7c-0.3,0-0.5-0.3-0.5-0.6c0-4.2,3.6-8.8,8.5-8.8c0.3,0,0.5,0.3,0.5,0.6
				s-0.2,0.6-0.5,0.6c-4.3,0-7.5,4-7.5,7.6C20,24.4,19.8,24.7,19.5,24.7"/>
			<path id="Fill-447" class="st1" d="M50,65.8h1V43.5h-1V65.8z"/>
			<path id="Fill-448" class="st1" d="M13,65.8h1V43.5h-1V65.8z"/>
		</g>
	</g>
</g>
</svg>
