<?xml version="1.0" encoding="utf-8"?>
<!-- Generator: Adobe Illustrator 23.0.2, SVG Export Plug-In . SVG Version: 6.00 Build 0)  -->
<svg version="1.1" id="Слой_1" xmlns="http://www.w3.org/2000/svg" xmlns:xlink="http://www.w3.org/1999/xlink" x="0px" y="0px"
	 viewBox="0 0 64 48" style="enable-background:new 0 0 64 48;" xml:space="preserve">
<style type="text/css">
	.st0{fill-rule:evenodd;clip-rule:evenodd;fill:#00FF30;}
	.st1{fill-rule:evenodd;clip-rule:evenodd;fill:#FFDA00;}
</style>
<g id="Page-1">
	<g id="Artboard-3" transform="translate(-420.000000, -248.000000)">
		<g id="Stars" transform="translate(420.000000, 248.000000)">
			<path id="Fill-32" class="st0" d="M58.8,17.1l4.6,1c0.8,0.2,0.8,1.3,0,1.5l-4.6,1c-0.4,0.1-0.7,0.4-0.8,0.7l-1.3,4.9
				c-0.2,0.8-1.3,0.8-1.5,0L54,21.4c-0.1-0.3-0.4-0.6-0.8-0.7l-4.6-1c-0.8-0.2-0.8-1.3,0-1.5l4.6-1c0.4-0.1,0.7-0.4,0.8-0.7l1.3-4.9
				c0.2-0.8,1.3-0.8,1.5,0l1.3,4.9C58.1,16.7,58.4,17,58.8,17.1"/>
			<path id="Fill-33" class="st0" d="M10.8,38.2l4.6,1c0.8,0.2,0.8,1.3,0,1.5l-4.6,1c-0.4,0.1-0.7,0.4-0.8,0.7l-1.3,4.9
				c-0.2,0.8-1.3,0.8-1.5,0L6,42.5c-0.1-0.3-0.4-0.6-0.8-0.7l-4.6-1c-0.8-0.2-0.8-1.3,0-1.5l4.6-1c0.4-0.1,0.7-0.4,0.8-0.7l1.3-4.9
				c0.2-0.8,1.3-0.8,1.5,0l1.3,4.9C10.1,37.8,10.4,38.1,10.8,38.2"/>
			<path id="Fill-34" class="st1" d="M40,3.1l2.3,0.5c0.4,0.1,0.4,0.6,0,0.7L40,4.9c-0.2,0-0.3,0.2-0.4,0.4L39,7.7
				c-0.1,0.4-0.6,0.4-0.7,0l-0.6-2.5c-0.1-0.2-0.2-0.3-0.4-0.4l-2.3-0.5c-0.4-0.1-0.4-0.6,0-0.7l2.3-0.5c0.2,0,0.3-0.2,0.4-0.4
				l0.6-2.5c0.1-0.4,0.6-0.4,0.7,0l0.6,2.5C39.7,2.9,39.8,3.1,40,3.1"/>
			<path id="Fill-35" class="st0" d="M46.4,35.1l2.3,0.5c0.4,0.1,0.4,0.6,0,0.7l-2.3,0.5c-0.2,0-0.3,0.2-0.4,0.4l-0.6,2.5
				c-0.1,0.4-0.6,0.4-0.7,0L44,37.2c-0.1-0.2-0.2-0.3-0.4-0.4l-2.3-0.5c-0.4-0.1-0.4-0.6,0-0.7l2.3-0.5c0.2,0,0.3-0.2,0.4-0.4
				l0.6-2.5c0.1-0.4,0.6-0.4,0.7,0l0.6,2.5C46.1,34.9,46.2,35.1,46.4,35.1"/>
			<path id="Fill-36" class="st1" d="M35.7,43.6l1.2,0.3c0.2,0.1,0.2,0.3,0,0.4l-1.2,0.3c-0.1,0-0.2,0.1-0.2,0.2l-0.3,1.2
				c-0.1,0.2-0.3,0.2-0.4,0l-0.3-1.2c0-0.1-0.1-0.2-0.2-0.2l-1.2-0.3c-0.2-0.1-0.2-0.3,0-0.4l1.2-0.3c0.1,0,0.2-0.1,0.2-0.2l0.3-1.2
				c0.1-0.2,0.3-0.2,0.4,0l0.3,1.2C35.5,43.5,35.6,43.5,35.7,43.6"/>
			<path id="Fill-40" class="st1" d="M18.7,5.6l1.2,0.3c0.2,0.1,0.2,0.3,0,0.4l-1.2,0.3c-0.1,0-0.2,0.1-0.2,0.2l-0.3,1.2
				c-0.1,0.2-0.3,0.2-0.4,0l-0.3-1.2c0-0.1-0.1-0.2-0.2-0.2l-1.2-0.3c-0.2-0.1-0.2-0.3,0-0.4l1.2-0.3c0.1,0,0.2-0.1,0.2-0.2l0.3-1.2
				c0.1-0.2,0.3-0.2,0.4,0l0.3,1.2C18.5,5.5,18.6,5.5,18.7,5.6"/>
			<path id="Fill-57" class="st1" d="M11,17c0,1.1-0.9,2-2,2s-2-0.9-2-2s0.9-2,2-2S11,15.9,11,17"/>
			<path id="Fill-331" class="st1" d="M31,22.5c-4.1,0-7.4-1.5-10.2-3.1l0.5-0.9c2.8,1.5,5.9,2.9,9.8,2.9c3.9,0,5.8-0.9,5.8-0.9
				l0.5,0.9C37.1,21.5,35.2,22.5,31,22.5"/>
			<path id="Fill-332" class="st1" d="M23.2,33.5l-0.4-0.9c2.8-1.2,8.6-0.8,10.4,0l-0.4,0.9C31.2,32.7,25.7,32.4,23.2,33.5"/>
			<path id="Fill-333" class="st1" d="M31.5,28.1c-1.9,0-4-0.5-5.8-1.7c-0.9-0.6-1.8-1.3-2.6-2c-1.4-1.1-2.7-2.2-4.4-3l0.4-0.9
				c1.8,0.9,3.2,2,4.6,3.1c0.8,0.6,1.6,1.3,2.5,1.9c2.8,1.9,6.3,1.8,8.5,0.9l2.2-0.9l0.4,0.9l-2.2,0.9
				C34.1,27.9,32.9,28.1,31.5,28.1"/>
			<path id="Fill-65" class="st0" d="M28,15c-5.5,0-10,4.5-10,10s4.5,10,10,10s10-4.5,10-10S33.5,15,28,15 M28,16c5,0,9,4,9,9
				s-4,9-9,9s-9-4-9-9S23,16,28,16"/>
		</g>
	</g>
</g>
</svg>
