<?xml version="1.0" encoding="utf-8"?>
<!-- Generator: Adobe Illustrator 23.0.2, SVG Export Plug-In . SVG Version: 6.00 Build 0)  -->
<svg version="1.1" id="Слой_1" xmlns="http://www.w3.org/2000/svg" xmlns:xlink="http://www.w3.org/1999/xlink" x="0px" y="0px"
	 viewBox="0 0 64 64" style="enable-background:new 0 0 64 64;" xml:space="preserve">
<style type="text/css">
	.st0{fill-rule:evenodd;clip-rule:evenodd;fill:#F2B430;}
	.st1{fill-rule:evenodd;clip-rule:evenodd;fill:#58FF00;}
</style>
<g id="Page-1">
	<g id="Artboard-3" transform="translate(-212.000000, -552.000000)">
		<g id="UFO-1" transform="translate(212.000000, 552.000000)">
			<path id="Fill-98" class="st0" d="M32,1c6.4,0,12.1,3.6,15,8.9l1.2,0.1C45.2,4.1,39.1,0,32,0c-7.1,0-13.2,4.1-16.2,10.1L17,10
				C19.9,4.6,25.5,1,32,1"/>
			<path id="Fill-97" class="st1" d="M32,8C14.3,8,0,13.4,0,20s14.3,12,32,12s32-5.4,32-12S49.7,8,32,8 M32,9c18.5,0,31,5.7,31,11
				S50.5,31,32,31S1,25.3,1,20S13.5,9,32,9"/>
			<path id="Fill-100" class="st0" d="M32,56c-8.3,0-17,1.8-17,4s8.7,4,17,4s17-1.8,17-4S40.3,56,32,56 M32,57c9,0,15.5,1.9,16,3
				c-0.5,1.1-7,3-16,3s-15.5-1.9-16-3C16.5,58.9,23,57,32,57"/>
			<path id="Fill-101" class="st0" d="M16,60.1l-1-0.2l9-37l1,0.2L16,60.1z"/>
			<path id="Fill-102" class="st0" d="M48,60.1l-9-37l1-0.2l9,37L48,60.1z"/>
			<path id="Fill-99" class="st1" d="M40,23c0,1.7-3.6,3-8,3s-8-1.3-8-3s3.6-3,8-3S40,21.3,40,23"/>
		</g>
	</g>
</g>
</svg>
